Tanklager-Kompakt.ufo
<glyph name="exclam" format="2">
  <advance width="200"/>
  <unicode hex="0021"/>
  <outline>
    <contour>
      <point x="40" y="180" type="line"/>
      <point x="160" y="180" type="line"/>
      <point x="160" y="700" type="line"/>
      <point x="40" y="700" type="line"/>
    </contour>
    <contour>
      <point x="40" y="0" type="line"/>
      <point x="160" y="0" type="line"/>
      <point x="160" y="120" type="line"/>
      <point x="40" y="120" type="line"/>
    </contour>
  </outline>
</glyph>
<glyph name="quotedbl" format="2">
  <advance width="290"/>
  <unicode hex="0022"/>
  <outline>
    <contour>
      <point x="30" y="410" type="line"/>
      <point x="110" y="410" type="line"/>
      <point x="120" y="700" type="line"/>
      <point x="30" y="700" type="line"/>
    </contour>
    <contour>
      <point x="170" y="410" type="line"/>
      <point x="250" y="410" type="line"/>
      <point x="260" y="700" type="line"/>
      <point x="170" y="700" type="line"/>
    </contour>
  </outline>
</glyph>
<glyph name="numbersign" format="2">
  <advance width="510"/>
  <unicode hex="0023"/>
  <outline>
    <contour>
      <point x="60" y="-50" type="line"/>
      <point x="161" y="-50" type="line"/>
      <point x="250" y="700" type="line"/>
      <point x="149" y="700" type="line"/>
    </contour>
    <contour>
      <point x="260" y="-50" type="line"/>
      <point x="361" y="-50" type="line"/>
      <point x="450" y="700" type="line"/>
      <point x="349" y="700" type="line"/>
    </contour>
    <contour>
      <point x="20" y="430" type="line"/>
      <point x="490" y="430" type="line"/>
      <point x="490" y="520" type="line"/>
      <point x="20" y="520" type="line"/>
    </contour>
    <contour>
      <point x="20" y="130" type="line"/>
      <point x="490" y="130" type="line"/>
      <point x="490" y="220" type="line"/>
      <point x="20" y="220" type="line"/>
    </contour>
  </outline>
</glyph>
<glyph name="percent" format="2">
  <advance width="682"/>
  <unicode hex="0025"/>
  <outline>
    <contour>
      <point x="185" y="601" type="curve" smooth="yes"/>
      <point x="185" y="509" type="line" smooth="yes"/>
      <point x="185" y="467"/>
      <point x="168" y="454"/>
      <point x="148" y="454" type="curve" smooth="yes"/>
      <point x="129" y="454"/>
      <point x="112" y="467"/>
      <point x="112" y="509" type="curve" smooth="yes"/>
      <point x="112" y="601" type="line" smooth="yes"/>
      <point x="112" y="643"/>
      <point x="129" y="656"/>
      <point x="148" y="656" type="curve" smooth="yes"/>
      <point x="168" y="656"/>
      <point x="185" y="643"/>
    </contour>
    <contour>
      <point x="30" y="611" type="curve" smooth="yes"/>
      <point x="30" y="499" type="line"/>
      <point x="30" y="421"/>
      <point x="67" y="400"/>
      <point x="148" y="400" type="curve" smooth="yes"/>
      <point x="230" y="400"/>
      <point x="267" y="421"/>
      <point x="267" y="499" type="curve" smooth="yes"/>
      <point x="267" y="611" type="line" smooth="yes"/>
      <point x="267" y="688"/>
      <point x="230" y="710"/>
      <point x="148" y="710" type="curve" smooth="yes"/>
      <point x="67" y="710"/>
      <point x="30" y="688"/>
    </contour>
    <contour>
      <point x="156" y="0" type="line"/>
      <point x="277" y="0" type="line"/>
      <point x="516" y="700" type="line"/>
      <point x="395" y="700" type="line"/>
    </contour>
    <contour>
      <point x="570" y="191" type="curve" smooth="yes"/>
      <point x="570" y="99" type="line" smooth="yes"/>
      <point x="570" y="57"/>
      <point x="553" y="44"/>
      <point x="533" y="44" type="curve" smooth="yes"/>
      <point x="514" y="44"/>
      <point x="497" y="57"/>
      <point x="497" y="99" type="curve" smooth="yes"/>
      <point x="497" y="191" type="line" smooth="yes"/>
      <point x="497" y="233"/>
      <point x="514" y="246"/>
      <point x="533" y="246" type="curve" smooth="yes"/>
      <point x="553" y="246"/>
      <point x="570" y="233"/>
    </contour>
    <contour>
      <point x="415" y="201" type="curve" smooth="yes"/>
      <point x="415" y="89" type="line"/>
      <point x="415" y="11"/>
      <point x="452" y="-10"/>
      <point x="533" y="-10" type="curve" smooth="yes"/>
      <point x="615" y="-10"/>
      <point x="652" y="11"/>
      <point x="652" y="89" type="curve" smooth="yes"/>
      <point x="652" y="201" type="line" smooth="yes"/>
      <point x="652" y="278"/>
      <point x="615" y="300"/>
      <point x="533" y="300" type="curve" smooth="yes"/>
      <point x="452" y="300"/>
      <point x="415" y="278"/>
    </contour>
  </outline>
</glyph>
<glyph name="ampersand" format="2">
  <advance width="581"/>
  <unicode hex="0026"/>
  <outline>
    <contour>
      <point x="342" y="568" type="curve"/>
      <point x="462" y="568" type="line"/>
      <point x="462" y="662"/>
      <point x="411" y="710"/>
      <point x="261" y="710" type="curve"/>
      <point x="261" y="630" type="line"/>
      <point x="311" y="630"/>
      <point x="342" y="615"/>
    </contour>
    <contour>
      <point x="246" y="-10" type="curve"/>
      <point x="246" y="70" type="line"/>
      <point x="196" y="70"/>
      <point x="150" y="85"/>
      <point x="150" y="132" type="curve"/>
      <point x="30" y="132" type="line"/>
      <point x="30" y="38"/>
      <point x="96" y="-10"/>
    </contour>
    <contour>
      <point x="30" y="132" type="line"/>
      <point x="150" y="132" type="line"/>
      <point x="150" y="288" type="line"/>
      <point x="30" y="289" type="line"/>
    </contour>
    <contour>
      <point x="60" y="568" type="curve" smooth="yes"/>
      <point x="60" y="531"/>
      <point x="68" y="494"/>
      <point x="126" y="418" type="curve" smooth="yes"/>
      <point x="445" y="0" type="line"/>
      <point x="575" y="0" type="line"/>
      <point x="223" y="460" type="line" smooth="yes"/>
      <point x="192" y="500"/>
      <point x="178" y="536"/>
      <point x="178" y="568" type="curve" smooth="yes"/>
      <point x="178" y="605"/>
      <point x="197" y="630"/>
      <point x="261" y="630" type="curve"/>
      <point x="261" y="710" type="line"/>
      <point x="111" y="710"/>
      <point x="60" y="662"/>
    </contour>
    <contour>
      <point x="342" y="470" type="line"/>
      <point x="462" y="470" type="line"/>
      <point x="462" y="568" type="line"/>
      <point x="342" y="568" type="line"/>
    </contour>
    <contour>
      <point x="246" y="70" type="curve"/>
      <point x="246" y="-10" type="line"/>
      <point x="396" y="-10"/>
      <point x="462" y="38"/>
      <point x="462" y="132" type="curve"/>
      <point x="342" y="132" type="line"/>
      <point x="342" y="85"/>
      <point x="296" y="70"/>
    </contour>
    <contour>
      <point x="342" y="132" type="line"/>
      <point x="462" y="132" type="line"/>
      <point x="462" y="168" type="line"/>
      <point x="342" y="168" type="line"/>
    </contour>
    <contour>
      <point x="462" y="470" type="curve"/>
      <point x="342" y="470" type="line"/>
      <point x="342" y="423"/>
      <point x="311" y="410"/>
      <point x="261" y="410" type="curve"/>
      <point x="261" y="340" type="line"/>
      <point x="411" y="340"/>
      <point x="462" y="376"/>
    </contour>
    <contour>
      <point x="246" y="340" type="curve"/>
      <point x="246" y="410" type="line"/>
      <point x="96" y="410"/>
      <point x="30" y="382"/>
      <point x="30" y="288" type="curve"/>
      <point x="150" y="288" type="line"/>
      <point x="150" y="335"/>
      <point x="196" y="340"/>
    </contour>
    <contour>
      <point x="342" y="168" type="curve"/>
      <point x="462" y="168" type="line"/>
      <point x="462" y="215"/>
      <point x="493" y="230"/>
      <point x="543" y="230" type="curve"/>
      <point x="543" y="310" type="line"/>
      <point x="393" y="310"/>
      <point x="342" y="262"/>
    </contour>
    <contour>
      <point x="246" y="340" type="line"/>
      <point x="262" y="340" type="line"/>
      <point x="262" y="410" type="line"/>
      <point x="246" y="410" type="line"/>
    </contour>
  </outline>
</glyph>
<glyph name="quotesingle" format="2">
  <advance width="150"/>
  <unicode hex="0027"/>
  <outline>
    <contour>
      <point x="30" y="410" type="line"/>
      <point x="110" y="410" type="line"/>
      <point x="120" y="700" type="line"/>
      <point x="30" y="700" type="line"/>
    </contour>
  </outline>
</glyph>
<glyph name="parenleft" format="2">
  <advance width="245"/>
  <unicode hex="0028"/>
  <outline>
    <contour>
      <point x="130" y="1" type="curve"/>
      <point x="225" y="1" type="line"/>
      <point x="125" y="224"/>
      <point x="125" y="488"/>
      <point x="225" y="701" type="curve"/>
      <point x="130" y="701" type="line"/>
      <point x="-4" y="512"/>
      <point x="-4" y="204"/>
    </contour>
  </outline>
</glyph>
<glyph name="parenright" format="2">
  <advance width="245"/>
  <unicode hex="0029"/>
  <outline>
    <contour>
      <point x="30" y="1" type="curve"/>
      <point x="125" y="1" type="line"/>
      <point x="259" y="204"/>
      <point x="259" y="512"/>
      <point x="125" y="701" type="curve"/>
      <point x="30" y="701" type="line"/>
      <point x="130" y="488"/>
      <point x="130" y="224"/>
    </contour>
  </outline>
</glyph>
<glyph name="asterisk" format="2">
  <advance width="298"/>
  <unicode hex="002A"/>
  <guideline x="143" y="805" angle="270"/>
  <outline>
    <contour>
      <point x="114" y="700" type="line"/>
      <point x="114" y="566" type="line"/>
      <point x="179" y="566" type="line"/>
      <point x="179" y="700" type="line"/>
    </contour>
    <contour>
      <point x="41" y="642" type="line"/>
      <point x="20" y="580" type="line"/>
      <point x="135" y="543" type="line"/>
      <point x="155" y="605" type="line"/>
    </contour>
    <contour>
      <point x="46" y="490" type="line"/>
      <point x="98" y="451" type="line"/>
      <point x="175" y="558" type="line"/>
      <point x="122" y="596" type="line"/>
    </contour>
    <contour>
      <point x="257" y="642" type="line"/>
      <point x="143" y="605" type="line"/>
      <point x="163" y="543" type="line"/>
      <point x="278" y="580" type="line"/>
    </contour>
    <contour>
      <point x="252" y="490" type="line"/>
      <point x="176" y="596" type="line"/>
      <point x="123" y="558" type="line"/>
      <point x="200" y="451" type="line"/>
    </contour>
  </outline>
</glyph>
<glyph name="plus" format="2">
  <advance width="340"/>
  <unicode hex="002B"/>
  <outline>
    <contour>
      <point x="125" y="480" type="line"/>
      <point x="125" y="180" type="line"/>
      <point x="215" y="180" type="line"/>
      <point x="215" y="480" type="line"/>
    </contour>
    <contour>
      <point x="320" y="375" type="line"/>
      <point x="20" y="375" type="line"/>
      <point x="20" y="285" type="line"/>
      <point x="320" y="285" type="line"/>
    </contour>
  </outline>
</glyph>
<glyph name="comma" format="2">
  <advance width="138"/>
  <unicode hex="002C"/>
  <guideline x="102" y="120" angle="180"/>
  <outline>
    <contour>
      <point x="10" y="-170" type="line"/>
      <point x="100" y="-170" type="line"/>
      <point x="128" y="120" type="line"/>
      <point x="38" y="120" type="line"/>
    </contour>
  </outline>
</glyph>
<glyph name="zero" format="2">
  <advance width="492"/>
  <unicode hex="0030"/>
  <outline>
    <contour>
      <point x="332" y="480" type="curve" smooth="yes"/>
      <point x="332" y="220" type="line" smooth="yes"/>
      <point x="332" y="98"/>
      <point x="292" y="70"/>
      <point x="246" y="70" type="curve" smooth="yes"/>
      <point x="200" y="70"/>
      <point x="160" y="98"/>
      <point x="160" y="220" type="curve" smooth="yes"/>
      <point x="160" y="480" type="line" smooth="yes"/>
      <point x="160" y="602"/>
      <point x="200" y="630"/>
      <point x="246" y="630" type="curve" smooth="yes"/>
      <point x="292" y="630"/>
      <point x="332" y="602"/>
    </contour>
    <contour>
      <point x="40" y="480" type="curve" smooth="yes"/>
      <point x="40" y="220" type="line"/>
      <point x="40" y="41"/>
      <point x="127" y="-10"/>
      <point x="246" y="-10" type="curve" smooth="yes"/>
      <point x="365" y="-10"/>
      <point x="452" y="41"/>
      <point x="452" y="220" type="curve" smooth="yes"/>
      <point x="452" y="480" type="line" smooth="yes"/>
      <point x="452" y="659"/>
      <point x="365" y="710"/>
      <point x="246" y="710" type="curve" smooth="yes"/>
      <point x="127" y="710"/>
      <point x="40" y="659"/>
    </contour>
    <contour>
      <point x="200" y="300" type="line"/>
      <point x="292" y="300" type="line"/>
      <point x="292" y="400" type="line"/>
      <point x="200" y="400" type="line"/>
    </contour>
  </outline>
</glyph>
<glyph name="one" format="2">
  <advance width="363"/>
  <unicode hex="0031"/>
  <outline>
    <contour>
      <point x="16" y="407" type="line"/>
      <point x="121" y="390" type="line"/>
      <point x="205" y="700" type="line"/>
      <point x="95" y="700" type="line"/>
    </contour>
    <contour>
      <point x="183" y="0" type="line"/>
      <point x="303" y="0" type="line"/>
      <point x="303" y="700" type="line"/>
      <point x="183" y="700" type="line"/>
    </contour>
  </outline>
</glyph>
<glyph name="two" format="2">
  <advance width="453"/>
  <unicode hex="0032"/>
  <outline>
    <contour>
      <point x="36" y="0" type="line"/>
      <point x="423" y="0" type="line"/>
      <point x="423" y="90" type="line"/>
      <point x="36" y="90" type="line"/>
    </contour>
    <contour>
      <point x="303" y="568" type="curve"/>
      <point x="423" y="568" type="line"/>
      <point x="423" y="662"/>
      <point x="372" y="710"/>
      <point x="232" y="710" type="curve"/>
      <point x="232" y="630" type="line"/>
      <point x="282" y="630"/>
      <point x="303" y="615"/>
    </contour>
    <contour>
      <point x="41" y="568" type="curve"/>
      <point x="161" y="568" type="line"/>
      <point x="161" y="615"/>
      <point x="192" y="630"/>
      <point x="232" y="630" type="curve"/>
      <point x="232" y="710" type="line"/>
      <point x="92" y="710"/>
      <point x="41" y="662"/>
    </contour>
    <contour>
      <point x="41" y="470" type="line"/>
      <point x="161" y="470" type="line"/>
      <point x="161" y="568" type="line"/>
      <point x="41" y="568" type="line"/>
    </contour>
    <contour>
      <point x="303" y="470" type="line"/>
      <point x="303" y="423"/>
      <point x="282" y="410"/>
      <point x="239" y="379" type="curve" smooth="yes"/>
      <point x="197" y="349" type="line" smooth="yes"/>
      <point x="75" y="262"/>
      <point x="36" y="248"/>
      <point x="36" y="154" type="curve" smooth="yes"/>
      <point x="36" y="66" type="line"/>
      <point x="156" y="66" type="line"/>
      <point x="156" y="154" type="line" smooth="yes"/>
      <point x="156" y="201"/>
      <point x="187" y="214"/>
      <point x="230" y="245" type="curve" smooth="yes"/>
      <point x="272" y="275" type="line" smooth="yes"/>
      <point x="384" y="355"/>
      <point x="423" y="376"/>
      <point x="423" y="470" type="curve" smooth="yes"/>
      <point x="423" y="568" type="line"/>
      <point x="303" y="568" type="line"/>
    </contour>
  </outline>
</glyph>
<glyph name="three" format="2">
  <advance width="478"/>
  <unicode hex="0033"/>
  <outline>
    <contour>
      <point x="313" y="570" type="curve"/>
      <point x="433" y="570" type="line"/>
      <point x="433" y="664"/>
      <point x="382" y="710"/>
      <point x="242" y="710" type="curve"/>
      <point x="242" y="630" type="line"/>
      <point x="282" y="630"/>
      <point x="313" y="617"/>
    </contour>
    <contour>
      <point x="242" y="-10" type="curve"/>
      <point x="242" y="70" type="line"/>
      <point x="202" y="70"/>
      <point x="156" y="85"/>
      <point x="156" y="132" type="curve"/>
      <point x="36" y="132" type="line"/>
      <point x="36" y="38"/>
      <point x="102" y="-10"/>
    </contour>
    <contour>
      <point x="36" y="132" type="line"/>
      <point x="156" y="132" type="line"/>
      <point x="156" y="268" type="line"/>
      <point x="36" y="269" type="line"/>
    </contour>
    <contour>
      <point x="51" y="570" type="curve"/>
      <point x="171" y="570" type="line"/>
      <point x="171" y="617"/>
      <point x="202" y="630"/>
      <point x="242" y="630" type="curve"/>
      <point x="242" y="710" type="line"/>
      <point x="102" y="710"/>
      <point x="51" y="664"/>
    </contour>
    <contour>
      <point x="313" y="470" type="line"/>
      <point x="433" y="470" type="line"/>
      <point x="433" y="570" type="line"/>
      <point x="313" y="570" type="line"/>
    </contour>
    <contour>
      <point x="51" y="470" type="line"/>
      <point x="171" y="470" type="line"/>
      <point x="171" y="570" type="line"/>
      <point x="51" y="570" type="line"/>
    </contour>
    <contour>
      <point x="433" y="470" type="curve"/>
      <point x="313" y="470" type="line"/>
      <point x="313" y="423"/>
      <point x="282" y="420"/>
      <point x="242" y="420" type="curve"/>
      <point x="242" y="370" type="line"/>
      <point x="382" y="370"/>
      <point x="433" y="376"/>
    </contour>
    <contour>
      <point x="242" y="70" type="curve"/>
      <point x="242" y="-10" type="line"/>
      <point x="382" y="-10"/>
      <point x="448" y="38"/>
      <point x="448" y="132" type="curve"/>
      <point x="328" y="132" type="line"/>
      <point x="328" y="85"/>
      <point x="282" y="70"/>
    </contour>
    <contour>
      <point x="448" y="132" type="line"/>
      <point x="448" y="268" type="line"/>
      <point x="328" y="268" type="line"/>
      <point x="328" y="132" type="line"/>
    </contour>
    <contour>
      <point x="242" y="390" type="curve"/>
      <point x="242" y="330" type="line"/>
      <point x="282" y="330"/>
      <point x="328" y="315"/>
      <point x="328" y="268" type="curve"/>
      <point x="448" y="268" type="line"/>
      <point x="448" y="362"/>
      <point x="382" y="390"/>
    </contour>
    <contour>
      <point x="153" y="330" type="line"/>
      <point x="273" y="330" type="line"/>
      <point x="273" y="420" type="line"/>
      <point x="153" y="420" type="line"/>
    </contour>
  </outline>
</glyph>
<glyph name="four" format="2">
  <advance width="432"/>
  <unicode hex="0034"/>
  <outline>
    <contour>
      <point x="20" y="188" type="line"/>
      <point x="120" y="188" type="line"/>
      <point x="258" y="700" type="line"/>
      <point x="158" y="700" type="line"/>
    </contour>
    <contour>
      <point x="20" y="98" type="line"/>
      <point x="416" y="98" type="line"/>
      <point x="416" y="188" type="line"/>
      <point x="20" y="188" type="line"/>
    </contour>
    <contour>
      <point x="236" y="0" type="line"/>
      <point x="356" y="0" type="line"/>
      <point x="356" y="700" type="line"/>
      <point x="236" y="700" type="line"/>
    </contour>
  </outline>
</glyph>
<glyph name="five" format="2">
  <advance width="478"/>
  <unicode hex="0035"/>
  <outline>
    <contour>
      <point x="242" y="70" type="curve"/>
      <point x="242" y="-10" type="line"/>
      <point x="382" y="-10"/>
      <point x="448" y="38"/>
      <point x="448" y="132" type="curve"/>
      <point x="328" y="132" type="line"/>
      <point x="328" y="85"/>
      <point x="282" y="70"/>
    </contour>
    <contour>
      <point x="448" y="132" type="line"/>
      <point x="448" y="338" type="line"/>
      <point x="328" y="338" type="line"/>
      <point x="328" y="132" type="line"/>
    </contour>
    <contour>
      <point x="242" y="-10" type="curve"/>
      <point x="242" y="70" type="line"/>
      <point x="202" y="70"/>
      <point x="156" y="85"/>
      <point x="156" y="132" type="curve"/>
      <point x="36" y="132" type="line"/>
      <point x="36" y="38"/>
      <point x="102" y="-10"/>
    </contour>
    <contour>
      <point x="36" y="132" type="line"/>
      <point x="156" y="132" type="line"/>
      <point x="156" y="230" type="line"/>
      <point x="36" y="230" type="line"/>
    </contour>
    <contour>
      <point x="156" y="348" type="line"/>
      <point x="156" y="700" type="line"/>
      <point x="36" y="700" type="line"/>
      <point x="36" y="348" type="line"/>
    </contour>
    <contour>
      <point x="328" y="338" type="curve"/>
      <point x="448" y="338" type="line"/>
      <point x="448" y="465"/>
      <point x="362" y="498"/>
      <point x="270" y="498" type="curve" smooth="yes"/>
      <point x="187" y="498"/>
      <point x="106" y="471"/>
      <point x="106" y="348" type="curve"/>
      <point x="156" y="348" type="line"/>
      <point x="156" y="395"/>
      <point x="202" y="408"/>
      <point x="242" y="408" type="curve" smooth="yes"/>
      <point x="282" y="408"/>
      <point x="328" y="395"/>
    </contour>
    <contour>
      <point x="66" y="610" type="line"/>
      <point x="433" y="610" type="line"/>
      <point x="433" y="700" type="line"/>
      <point x="66" y="700" type="line"/>
    </contour>
  </outline>
</glyph>
<glyph name="six" format="2">
  <advance width="478"/>
  <unicode hex="0036"/>
  <guideline x="445" y="418"/>
  <outline>
    <contour>
      <point x="242" y="70" type="curve"/>
      <point x="242" y="-10" type="line"/>
      <point x="382" y="-10"/>
      <point x="448" y="38"/>
      <point x="448" y="132" type="curve"/>
      <point x="328" y="132" type="line"/>
      <point x="328" y="85"/>
      <point x="282" y="70"/>
    </contour>
    <contour>
      <point x="448" y="132" type="line"/>
      <point x="448" y="298" type="line"/>
      <point x="328" y="298" type="line"/>
      <point x="328" y="132" type="line"/>
    </contour>
    <contour>
      <point x="448" y="510" type="line"/>
      <point x="448" y="570" type="line"/>
      <point x="328" y="570" type="line"/>
      <point x="328" y="510" type="line"/>
    </contour>
    <contour>
      <point x="242" y="-10" type="curve"/>
      <point x="242" y="70" type="line"/>
      <point x="202" y="70"/>
      <point x="156" y="85"/>
      <point x="156" y="132" type="curve"/>
      <point x="36" y="132" type="line"/>
      <point x="36" y="38"/>
      <point x="102" y="-10"/>
    </contour>
    <contour>
      <point x="36" y="132" type="line"/>
      <point x="156" y="132" type="line"/>
      <point x="156" y="308" type="line"/>
      <point x="36" y="308" type="line"/>
    </contour>
    <contour>
      <point x="242" y="710" type="curve"/>
      <point x="242" y="630" type="line"/>
      <point x="282" y="630"/>
      <point x="328" y="617"/>
      <point x="328" y="570" type="curve"/>
      <point x="448" y="570" type="line"/>
      <point x="448" y="664"/>
      <point x="382" y="710"/>
    </contour>
    <contour>
      <point x="242" y="630" type="curve"/>
      <point x="242" y="710" type="line"/>
      <point x="102" y="710"/>
      <point x="36" y="664"/>
      <point x="36" y="570" type="curve"/>
      <point x="156" y="570" type="line"/>
      <point x="156" y="617"/>
      <point x="202" y="630"/>
    </contour>
    <contour>
      <point x="156" y="308" type="line"/>
      <point x="156" y="570" type="line"/>
      <point x="36" y="570" type="line"/>
      <point x="36" y="308" type="line"/>
    </contour>
    <contour>
      <point x="328" y="298" type="curve"/>
      <point x="448" y="298" type="line"/>
      <point x="448" y="425"/>
      <point x="362" y="458"/>
      <point x="270" y="458" type="curve" smooth="yes"/>
      <point x="187" y="458"/>
      <point x="106" y="431"/>
      <point x="106" y="308" type="curve"/>
      <point x="156" y="308" type="line"/>
      <point x="156" y="355"/>
      <point x="202" y="368"/>
      <point x="242" y="368" type="curve" smooth="yes"/>
      <point x="282" y="368"/>
      <point x="328" y="355"/>
    </contour>
  </outline>
</glyph>
<glyph name="seven" format="2">
  <advance width="353"/>
  <unicode hex="0037"/>
  <outline>
    <contour>
      <point x="16" y="610" type="line"/>
      <point x="272" y="610" type="line"/>
      <point x="272" y="700" type="line"/>
      <point x="16" y="700" type="line"/>
    </contour>
    <contour>
      <point x="82" y="0" type="line"/>
      <point x="202" y="0" type="line"/>
      <point x="352" y="700" type="line"/>
      <point x="232" y="700" type="line"/>
    </contour>
  </outline>
</glyph>
<glyph name="nine" format="2">
  <advance width="478"/>
  <unicode hex="0039"/>
  <outline>
    <contour>
      <point x="242" y="630" type="curve"/>
      <point x="242" y="710" type="line"/>
      <point x="102" y="710"/>
      <point x="36" y="662"/>
      <point x="36" y="568" type="curve"/>
      <point x="156" y="568" type="line"/>
      <point x="156" y="615"/>
      <point x="202" y="630"/>
    </contour>
    <contour>
      <point x="36" y="568" type="line"/>
      <point x="36" y="402" type="line"/>
      <point x="156" y="402" type="line"/>
      <point x="156" y="568" type="line"/>
    </contour>
    <contour>
      <point x="36" y="190" type="line"/>
      <point x="36" y="130" type="line"/>
      <point x="156" y="130" type="line"/>
      <point x="156" y="190" type="line"/>
    </contour>
    <contour>
      <point x="242" y="710" type="curve"/>
      <point x="242" y="630" type="line"/>
      <point x="282" y="630"/>
      <point x="328" y="615"/>
      <point x="328" y="568" type="curve"/>
      <point x="448" y="568" type="line"/>
      <point x="448" y="662"/>
      <point x="382" y="710"/>
    </contour>
    <contour>
      <point x="448" y="568" type="line"/>
      <point x="328" y="568" type="line"/>
      <point x="328" y="392" type="line"/>
      <point x="448" y="392" type="line"/>
    </contour>
    <contour>
      <point x="242" y="-10" type="curve"/>
      <point x="242" y="70" type="line"/>
      <point x="202" y="70"/>
      <point x="156" y="83"/>
      <point x="156" y="130" type="curve"/>
      <point x="36" y="130" type="line"/>
      <point x="36" y="36"/>
      <point x="102" y="-10"/>
    </contour>
    <contour>
      <point x="242" y="70" type="curve"/>
      <point x="242" y="-10" type="line"/>
      <point x="382" y="-10"/>
      <point x="448" y="36"/>
      <point x="448" y="130" type="curve"/>
      <point x="328" y="130" type="line"/>
      <point x="328" y="83"/>
      <point x="282" y="70"/>
    </contour>
    <contour>
      <point x="328" y="392" type="line"/>
      <point x="328" y="130" type="line"/>
      <point x="448" y="130" type="line"/>
      <point x="448" y="392" type="line"/>
    </contour>
    <contour>
      <point x="156" y="402" type="curve"/>
      <point x="36" y="402" type="line"/>
      <point x="36" y="275"/>
      <point x="122" y="242"/>
      <point x="214" y="242" type="curve" smooth="yes"/>
      <point x="297" y="242"/>
      <point x="378" y="269"/>
      <point x="378" y="392" type="curve"/>
      <point x="328" y="392" type="line"/>
      <point x="328" y="345"/>
      <point x="282" y="332"/>
      <point x="242" y="332" type="curve" smooth="yes"/>
      <point x="202" y="332"/>
      <point x="156" y="345"/>
    </contour>
  </outline>
</glyph>
<glyph name="semicolon" format="2">
  <advance width="204"/>
  <unicode hex="003B"/>
  <outline>
    <contour>
      <point x="42" y="350" type="line"/>
      <point x="162" y="350" type="line"/>
      <point x="162" y="470" type="line"/>
      <point x="42" y="470" type="line"/>
    </contour>
    <contour>
      <point x="26" y="-170" type="line"/>
      <point x="116" y="-170" type="line"/>
      <point x="144" y="120" type="line"/>
      <point x="54" y="120" type="line"/>
    </contour>
  </outline>
</glyph>
<glyph name="equal" format="2">
  <advance width="300"/>
  <unicode hex="003D"/>
  <outline>
    <contour>
      <point x="280" y="470" type="line"/>
      <point x="20" y="470" type="line"/>
      <point x="20" y="380" type="line"/>
      <point x="280" y="380" type="line"/>
    </contour>
    <contour>
      <point x="280" y="280" type="line"/>
      <point x="20" y="280" type="line"/>
      <point x="20" y="190" type="line"/>
      <point x="280" y="190" type="line"/>
    </contour>
  </outline>
</glyph>
<glyph name="greater" format="2">
  <advance width="366"/>
  <unicode hex="003E"/>
  <outline>
    <contour>
      <point x="26" y="-10" type="line"/>
      <point x="346" y="180" type="line"/>
      <point x="346" y="307" type="line"/>
      <point x="26" y="117" type="line"/>
    </contour>
    <contour>
      <point x="26" y="524" type="line"/>
      <point x="26" y="397" type="line"/>
      <point x="346" y="207" type="line"/>
      <point x="346" y="334" type="line"/>
    </contour>
  </outline>
</glyph>
<glyph name="question" format="2">
  <advance width="454"/>
  <unicode hex="003F"/>
  <guideline x="146" y="519" angle="90"/>
  <guideline x="154" y="224" angle="270"/>
  <outline>
    <contour>
      <point x="154" y="0" type="line"/>
      <point x="274" y="0" type="line"/>
      <point x="274" y="120" type="line"/>
      <point x="154" y="120" type="line"/>
    </contour>
    <contour>
      <point x="308" y="568" type="curve"/>
      <point x="428" y="568" type="line"/>
      <point x="428" y="662"/>
      <point x="377" y="710"/>
      <point x="227" y="710" type="curve"/>
      <point x="227" y="630" type="line"/>
      <point x="277" y="630"/>
      <point x="308" y="615"/>
    </contour>
    <contour>
      <point x="26" y="568" type="curve"/>
      <point x="146" y="568" type="line"/>
      <point x="146" y="615"/>
      <point x="177" y="630"/>
      <point x="227" y="630" type="curve"/>
      <point x="227" y="710" type="line"/>
      <point x="77" y="710"/>
      <point x="26" y="662"/>
    </contour>
    <contour>
      <point x="26" y="470" type="line"/>
      <point x="146" y="470" type="line"/>
      <point x="146" y="568" type="line"/>
      <point x="26" y="568" type="line"/>
    </contour>
    <contour>
      <point x="273" y="455" type="curve" smooth="yes"/>
      <point x="259" y="447" type="line" smooth="yes"/>
      <point x="165" y="394"/>
      <point x="154" y="363"/>
      <point x="154" y="268" type="curve" smooth="yes"/>
      <point x="154" y="180" type="line"/>
      <point x="274" y="180" type="line"/>
      <point x="274" y="268" type="line" smooth="yes"/>
      <point x="274" y="325"/>
      <point x="282" y="336"/>
      <point x="308" y="350" type="curve" smooth="yes"/>
      <point x="319" y="356" type="line" smooth="yes"/>
      <point x="417" y="410"/>
      <point x="428" y="450"/>
      <point x="428" y="534" type="curve" smooth="yes"/>
      <point x="428" y="568" type="line"/>
      <point x="308" y="568" type="line"/>
      <point x="308" y="534" type="line" smooth="yes"/>
      <point x="308" y="496"/>
      <point x="304" y="473"/>
    </contour>
  </outline>
</glyph>
<glyph name="at" format="2">
  <advance width="612"/>
  <unicode hex="0040"/>
  <outline>
    <contour>
      <point x="306" y="-10" type="curve" smooth="yes"/>
      <point x="516" y="-10"/>
      <point x="582" y="58"/>
      <point x="582" y="132" type="curve" smooth="yes"/>
      <point x="582" y="136" type="line"/>
      <point x="467" y="136" type="line"/>
      <point x="467" y="132" type="line" smooth="yes"/>
      <point x="467" y="105"/>
      <point x="416" y="70"/>
      <point x="306" y="70" type="curve" smooth="yes"/>
      <point x="196" y="70"/>
      <point x="145" y="115"/>
      <point x="145" y="162" type="curve" smooth="yes"/>
      <point x="145" y="548" type="line" smooth="yes"/>
      <point x="145" y="595"/>
      <point x="196" y="630"/>
      <point x="306" y="630" type="curve" smooth="yes"/>
      <point x="416" y="630"/>
      <point x="477" y="585"/>
      <point x="477" y="538" type="curve" smooth="yes"/>
      <point x="477" y="253" type="line" smooth="yes"/>
      <point x="477" y="241"/>
      <point x="460" y="234"/>
      <point x="447" y="234" type="curve" smooth="yes"/>
      <point x="435" y="234"/>
      <point x="417" y="241"/>
      <point x="417" y="253" type="curve" smooth="yes"/>
      <point x="417" y="528" type="line"/>
      <point x="347" y="528" type="line"/>
      <point x="347" y="500" type="line"/>
      <point x="338" y="521"/>
      <point x="313" y="535"/>
      <point x="285" y="535" type="curve" smooth="yes"/>
      <point x="232" y="535"/>
      <point x="195" y="502"/>
      <point x="195" y="408" type="curve" smooth="yes"/>
      <point x="195" y="291" type="line" smooth="yes"/>
      <point x="195" y="197"/>
      <point x="232" y="164"/>
      <point x="285" y="164" type="curve" smooth="yes"/>
      <point x="313" y="164"/>
      <point x="338" y="188"/>
      <point x="347" y="209" type="curve"/>
      <point x="347" y="205" type="line" smooth="yes"/>
      <point x="347" y="177"/>
      <point x="400" y="164"/>
      <point x="454" y="164" type="curve" smooth="yes"/>
      <point x="517" y="164"/>
      <point x="582" y="187"/>
      <point x="582" y="272" type="curve" smooth="yes"/>
      <point x="582" y="538" type="line" smooth="yes"/>
      <point x="582" y="632"/>
      <point x="516" y="710"/>
      <point x="306" y="710" type="curve" smooth="yes"/>
      <point x="97" y="710"/>
      <point x="30" y="641"/>
      <point x="30" y="548" type="curve" smooth="yes"/>
      <point x="30" y="162" type="line" smooth="yes"/>
      <point x="30" y="69"/>
      <point x="97" y="-10"/>
    </contour>
    <contour>
      <point x="275" y="291" type="curve" smooth="yes"/>
      <point x="275" y="408" type="line" smooth="yes"/>
      <point x="275" y="439"/>
      <point x="288" y="448"/>
      <point x="301" y="448" type="curve" smooth="yes"/>
      <point x="319" y="448"/>
      <point x="338" y="438"/>
      <point x="338" y="397" type="curve" smooth="yes"/>
      <point x="338" y="302" type="line" smooth="yes"/>
      <point x="338" y="261"/>
      <point x="319" y="251"/>
      <point x="301" y="251" type="curve" smooth="yes"/>
      <point x="288" y="251"/>
      <point x="275" y="260"/>
    </contour>
  </outline>
</glyph>
<glyph name="A" format="2">
  <advance width="468"/>
  <unicode hex="0041"/>
  <anchor x="224" y="0" name="bottom"/>
  <anchor x="426" y="10" name="ogonek"/>
  <anchor x="224" y="700" name="top"/>
  <outline>
    <contour>
      <point x="328" y="0" type="line"/>
      <point x="448" y="0" type="line"/>
      <point x="332" y="700" type="line"/>
      <point x="212" y="700" type="line"/>
    </contour>
    <contour>
      <point x="86" y="98" type="line"/>
      <point x="343" y="98" type="line"/>
      <point x="343" y="188" type="line"/>
      <point x="86" y="188" type="line"/>
    </contour>
    <contour>
      <point x="20" y="0" type="line"/>
      <point x="120" y="0" type="line"/>
      <point x="236" y="700" type="line"/>
      <point x="136" y="700" type="line"/>
    </contour>
  </outline>
</glyph>
<glyph name="B" format="2">
  <advance width="512"/>
  <unicode hex="0042"/>
  <guideline x="148" y="371" angle="180"/>
  <anchor x="225" y="0" name="bottom"/>
  <anchor x="225" y="350" name="center"/>
  <anchor x="225" y="700" name="top"/>
  <outline>
    <contour>
      <point x="60" y="0" type="line"/>
      <point x="180" y="0" type="line"/>
      <point x="180" y="700" type="line"/>
      <point x="60" y="700" type="line"/>
    </contour>
    <contour>
      <point x="286" y="90" type="curve"/>
      <point x="286" y="0" type="line"/>
      <point x="398" y="0"/>
      <point x="482" y="55"/>
      <point x="482" y="206" type="curve" smooth="yes"/>
      <point x="482" y="359"/>
      <point x="435" y="379"/>
      <point x="261" y="379" type="curve"/>
      <point x="261" y="329" type="line"/>
      <point x="319" y="329"/>
      <point x="362" y="285"/>
      <point x="362" y="196" type="curve" smooth="yes"/>
      <point x="362" y="142"/>
      <point x="346" y="90"/>
    </contour>
    <contour>
      <point x="80" y="0" type="line"/>
      <point x="286" y="0" type="line"/>
      <point x="286" y="90" type="line"/>
      <point x="80" y="90" type="line"/>
    </contour>
    <contour>
      <point x="80" y="329" type="line"/>
      <point x="296" y="329" type="line"/>
      <point x="296" y="419" type="line"/>
      <point x="80" y="419" type="line"/>
    </contour>
    <contour>
      <point x="80" y="610" type="line"/>
      <point x="266" y="610" type="line"/>
      <point x="266" y="700" type="line"/>
      <point x="80" y="700" type="line"/>
    </contour>
    <contour>
      <point x="261" y="419" type="curve"/>
      <point x="261" y="369" type="line"/>
      <point x="435" y="369"/>
      <point x="470" y="443"/>
      <point x="470" y="550" type="curve" smooth="yes"/>
      <point x="470" y="676"/>
      <point x="368" y="700"/>
      <point x="266" y="700" type="curve"/>
      <point x="266" y="610" type="line"/>
      <point x="324" y="610"/>
      <point x="351" y="595"/>
      <point x="351" y="535" type="curve" smooth="yes"/>
      <point x="351" y="495"/>
      <point x="341" y="419"/>
    </contour>
  </outline>
</glyph>
<glyph name="C" format="2">
  <advance width="498"/>
  <unicode hex="0043"/>
  <guideline x="392" y="268" angle="180"/>
  <anchor x="249" y="0" name="bottom"/>
  <anchor x="249" y="700" name="top"/>
  <outline>
    <contour>
      <point x="251" y="-10" type="curve" smooth="yes"/>
      <point x="401" y="-10"/>
      <point x="452" y="38"/>
      <point x="452" y="132" type="curve" smooth="yes"/>
      <point x="452" y="268" type="line"/>
      <point x="332" y="268" type="line"/>
      <point x="332" y="132" type="line" smooth="yes"/>
      <point x="332" y="85"/>
      <point x="301" y="70"/>
      <point x="251" y="70" type="curve" smooth="yes"/>
      <point x="201" y="70"/>
      <point x="170" y="85"/>
      <point x="170" y="132" type="curve" smooth="yes"/>
      <point x="170" y="568" type="line" smooth="yes"/>
      <point x="170" y="615"/>
      <point x="201" y="630"/>
      <point x="251" y="630" type="curve" smooth="yes"/>
      <point x="301" y="630"/>
      <point x="332" y="615"/>
      <point x="332" y="568" type="curve" smooth="yes"/>
      <point x="332" y="432" type="line"/>
      <point x="452" y="432" type="line"/>
      <point x="452" y="568" type="line" smooth="yes"/>
      <point x="452" y="662"/>
      <point x="401" y="710"/>
      <point x="251" y="710" type="curve" smooth="yes"/>
      <point x="102" y="710"/>
      <point x="50" y="662"/>
      <point x="50" y="569" type="curve" smooth="yes"/>
      <point x="50" y="132" type="line" smooth="yes"/>
      <point x="50" y="38"/>
      <point x="101" y="-10"/>
    </contour>
  </outline>
</glyph>
<glyph name="D" format="2">
  <advance width="508"/>
  <unicode hex="0044"/>
  <anchor x="254" y="0" name="bottom"/>
  <anchor x="254" y="350" name="center"/>
  <anchor x="254" y="700" name="top"/>
  <outline>
    <contour>
      <point x="60" y="0" type="line"/>
      <point x="180" y="0" type="line"/>
      <point x="180" y="700" type="line"/>
      <point x="60" y="700" type="line"/>
    </contour>
    <contour>
      <point x="136" y="0" type="line"/>
      <point x="251" y="0" type="line"/>
      <point x="251" y="80" type="line"/>
      <point x="136" y="80" type="line"/>
    </contour>
    <contour>
      <point x="251" y="80" type="curve"/>
      <point x="251" y="0" type="line"/>
      <point x="401" y="0"/>
      <point x="452" y="48"/>
      <point x="452" y="142" type="curve"/>
      <point x="332" y="142" type="line"/>
      <point x="332" y="95"/>
      <point x="301" y="80"/>
    </contour>
    <contour>
      <point x="332" y="142" type="line"/>
      <point x="452" y="142" type="line"/>
      <point x="452" y="558" type="line"/>
      <point x="332" y="558" type="line"/>
    </contour>
    <contour>
      <point x="136" y="620" type="line"/>
      <point x="251" y="620" type="line"/>
      <point x="251" y="700" type="line"/>
      <point x="136" y="700" type="line"/>
    </contour>
    <contour>
      <point x="332" y="558" type="curve"/>
      <point x="452" y="558" type="line"/>
      <point x="452" y="652"/>
      <point x="401" y="700"/>
      <point x="251" y="700" type="curve"/>
      <point x="251" y="620" type="line"/>
      <point x="301" y="620"/>
      <point x="332" y="605"/>
    </contour>
  </outline>
</glyph>
<glyph name="E" format="2">
  <advance width="421"/>
  <unicode hex="0045"/>
  <guideline x="182" y="470" angle="180"/>
  <anchor x="232" y="0" name="bottom"/>
  <anchor x="406" y="10" name="ogonek"/>
  <anchor x="232" y="700" name="top"/>
  <anchor x="20" y="700" name="topleft"/>
  <outline>
    <contour>
      <point x="60" y="0" type="line"/>
      <point x="180" y="0" type="line"/>
      <point x="180" y="700" type="line"/>
      <point x="60" y="700" type="line"/>
    </contour>
    <contour>
      <point x="128" y="0" type="line"/>
      <point x="385" y="0" type="line"/>
      <point x="385" y="90" type="line"/>
      <point x="128" y="90" type="line"/>
    </contour>
    <contour>
      <point x="128" y="380" type="line"/>
      <point x="345" y="380" type="line"/>
      <point x="345" y="470" type="line"/>
      <point x="128" y="470" type="line"/>
    </contour>
    <contour>
      <point x="128" y="610" type="line"/>
      <point x="385" y="610" type="line"/>
      <point x="385" y="700" type="line"/>
      <point x="128" y="700" type="line"/>
    </contour>
  </outline>
</glyph>
<glyph name="G" format="2">
  <advance width="502"/>
  <unicode hex="0047"/>
  <guideline x="204" y="-10"/>
  <guideline x="280" y="79"/>
  <anchor x="251" y="0" name="bottom"/>
  <anchor x="251" y="700" name="top"/>
  <outline>
    <contour>
      <point x="205" y="-11" type="curve" smooth="yes"/>
      <point x="275" y="-11"/>
      <point x="318" y="22"/>
      <point x="364" y="77" type="curve"/>
      <point x="364" y="228" type="line"/>
      <point x="332" y="228" type="line"/>
      <point x="332" y="125"/>
      <point x="295" y="79"/>
      <point x="245" y="79" type="curve" smooth="yes"/>
      <point x="205" y="79"/>
      <point x="170" y="108"/>
      <point x="170" y="160" type="curve" smooth="yes"/>
      <point x="170" y="568" type="line"/>
      <point x="50" y="569" type="line"/>
      <point x="50" y="142" type="line" smooth="yes"/>
      <point x="50" y="35"/>
      <point x="123" y="-11"/>
    </contour>
    <contour>
      <point x="332" y="0" type="line"/>
      <point x="452" y="0" type="line"/>
      <point x="452" y="470" type="line"/>
      <point x="332" y="470" type="line"/>
    </contour>
    <contour>
      <point x="232" y="380" type="line"/>
      <point x="444" y="380" type="line"/>
      <point x="444" y="470" type="line"/>
      <point x="232" y="470" type="line"/>
    </contour>
    <contour>
      <point x="50" y="568" type="curve"/>
      <point x="170" y="568" type="line"/>
      <point x="170" y="615"/>
      <point x="201" y="630"/>
      <point x="251" y="630" type="curve"/>
      <point x="251" y="710" type="line"/>
      <point x="101" y="710"/>
      <point x="50" y="662"/>
    </contour>
    <contour>
      <point x="332" y="568" type="curve"/>
      <point x="332" y="551" type="line"/>
      <point x="452" y="551" type="line"/>
      <point x="452" y="568" type="line"/>
      <point x="452" y="662"/>
      <point x="401" y="710"/>
      <point x="251" y="710" type="curve"/>
      <point x="251" y="630" type="line"/>
      <point x="301" y="630"/>
      <point x="332" y="615"/>
    </contour>
  </outline>
</glyph>
<glyph name="H" format="2">
  <advance width="520"/>
  <unicode hex="0048"/>
  <guideline x="400" y="700" angle="180"/>
  <anchor x="260" y="0" name="bottom"/>
  <anchor x="260" y="350" name="center"/>
  <anchor x="260" y="700" name="top"/>
  <anchor x="20" y="700" name="topleft"/>
  <outline>
    <contour>
      <point x="340" y="0" type="line"/>
      <point x="460" y="0" type="line"/>
      <point x="460" y="700" type="line"/>
      <point x="340" y="700" type="line"/>
    </contour>
    <contour>
      <point x="60" y="0" type="line"/>
      <point x="180" y="0" type="line"/>
      <point x="180" y="700" type="line"/>
      <point x="60" y="700" type="line"/>
    </contour>
    <contour>
      <point x="128" y="380" type="line"/>
      <point x="385" y="380" type="line"/>
      <point x="385" y="470" type="line"/>
      <point x="128" y="470" type="line"/>
    </contour>
  </outline>
</glyph>
<glyph name="I" format="2">
  <advance width="252"/>
  <unicode hex="0049"/>
  <anchor x="126" y="0" name="bottom"/>
  <anchor x="227" y="10" name="ogonek"/>
  <anchor x="126" y="700" name="top"/>
  <anchor x="20" y="700" name="topleft"/>
  <outline>
    <contour>
      <point x="66" y="0" type="line"/>
      <point x="186" y="0" type="line"/>
      <point x="186" y="700" type="line"/>
      <point x="66" y="700" type="line"/>
    </contour>
  </outline>
</glyph>
<glyph name="J" format="2">
  <advance width="326"/>
  <unicode hex="004A"/>
  <anchor x="156" y="0" name="bottom"/>
  <anchor x="206" y="700" name="top"/>
  <outline>
    <contour>
      <point x="146" y="142" type="line"/>
      <point x="266" y="142" type="line"/>
      <point x="266" y="700" type="line"/>
      <point x="146" y="700" type="line"/>
    </contour>
    <contour>
      <point x="16" y="0" type="line"/>
      <point x="85" y="0" type="line"/>
      <point x="85" y="80" type="line"/>
      <point x="16" y="80" type="line"/>
    </contour>
    <contour>
      <point x="85" y="80" type="curve"/>
      <point x="85" y="0" type="line"/>
      <point x="235" y="0"/>
      <point x="266" y="48"/>
      <point x="266" y="142" type="curve"/>
      <point x="146" y="142" type="line"/>
      <point x="146" y="95"/>
      <point x="135" y="80"/>
    </contour>
  </outline>
</glyph>
<glyph name="K" format="2">
  <advance width="472"/>
  <unicode hex="004B"/>
  <anchor x="236" y="0" name="bottom"/>
  <anchor x="236" y="700" name="top"/>
  <outline>
    <contour>
      <point x="80" y="280" type="line"/>
      <point x="180" y="280" type="line"/>
      <point x="434" y="700" type="line"/>
      <point x="334" y="700" type="line"/>
    </contour>
    <contour>
      <point x="60" y="0" type="line"/>
      <point x="180" y="0" type="line"/>
      <point x="180" y="700" type="line"/>
      <point x="60" y="700" type="line"/>
    </contour>
    <contour>
      <point x="331" y="0" type="line"/>
      <point x="446" y="0" type="line"/>
      <point x="305" y="542" type="line"/>
      <point x="222" y="410" type="line"/>
    </contour>
  </outline>
</glyph>
<glyph name="L" format="2">
  <advance width="360"/>
  <unicode hex="004C"/>
  <anchor x="180" y="0" name="bottom"/>
  <anchor x="180" y="350" name="center"/>
  <anchor x="120" y="700" name="top"/>
  <anchor x="340" y="700" name="topright"/>
  <outline>
    <contour>
      <point x="60" y="0" type="line"/>
      <point x="180" y="0" type="line"/>
      <point x="180" y="700" type="line"/>
      <point x="60" y="700" type="line"/>
    </contour>
    <contour>
      <point x="128" y="0" type="line"/>
      <point x="340" y="0" type="line"/>
      <point x="340" y="90" type="line"/>
      <point x="128" y="90" type="line"/>
    </contour>
  </outline>
</glyph>
<glyph name="M" format="2">
  <advance width="708"/>
  <unicode hex="004D"/>
  <guideline x="884" y="630"/>
  <anchor x="354" y="0" name="bottom"/>
  <anchor x="354" y="700" name="top"/>
  <outline>
    <contour>
      <point x="275" y="0" type="line"/>
      <point x="360" y="0" type="line"/>
      <point x="260" y="700" type="line"/>
      <point x="175" y="700" type="line"/>
    </contour>
    <contour>
      <point x="60" y="0" type="line"/>
      <point x="180" y="0" type="line"/>
      <point x="180" y="700" type="line"/>
      <point x="60" y="700" type="line"/>
    </contour>
    <contour>
      <point x="352" y="0" type="line"/>
      <point x="432" y="0" type="line"/>
      <point x="533" y="700" type="line"/>
      <point x="453" y="700" type="line"/>
    </contour>
    <contour>
      <point x="528" y="0" type="line"/>
      <point x="648" y="0" type="line"/>
      <point x="648" y="700" type="line"/>
      <point x="528" y="700" type="line"/>
    </contour>
  </outline>
</glyph>
<glyph name="N" format="2">
  <advance width="580"/>
  <unicode hex="004E"/>
  <anchor x="290" y="0" name="bottom"/>
  <anchor x="290" y="700" name="top"/>
  <outline>
    <contour>
      <point x="319" y="0" type="line"/>
      <point x="404" y="0" type="line"/>
      <point x="259" y="700" type="line"/>
      <point x="174" y="700" type="line"/>
    </contour>
    <contour>
      <point x="60" y="0" type="line"/>
      <point x="180" y="0" type="line"/>
      <point x="180" y="700" type="line"/>
      <point x="60" y="700" type="line"/>
    </contour>
    <contour>
      <point x="400" y="0" type="line"/>
      <point x="520" y="0" type="line"/>
      <point x="520" y="700" type="line"/>
      <point x="400" y="700" type="line"/>
    </contour>
  </outline>
</glyph>
<glyph name="O" format="2">
  <advance width="502"/>
  <unicode hex="004F"/>
  <guideline x="251" y="-10"/>
  <anchor x="251" y="0" name="bottom"/>
  <anchor x="251" y="350" name="center"/>
  <anchor x="452" y="10" name="ogonek"/>
  <anchor x="251" y="700" name="top"/>
  <anchor x="20" y="700" name="topleft"/>
  <anchor x="482" y="700" name="topright"/>
  <outline>
    <contour>
      <point x="251" y="-10" type="curve" smooth="yes"/>
      <point x="401" y="-10"/>
      <point x="452" y="38"/>
      <point x="452" y="132" type="curve" smooth="yes"/>
      <point x="452" y="568" type="line" smooth="yes"/>
      <point x="452" y="662"/>
      <point x="401" y="710"/>
      <point x="251" y="710" type="curve" smooth="yes"/>
      <point x="102" y="710"/>
      <point x="50" y="662"/>
      <point x="50" y="569" type="curve" smooth="yes"/>
      <point x="50" y="132" type="line" smooth="yes"/>
      <point x="50" y="38"/>
      <point x="101" y="-10"/>
    </contour>
    <contour>
      <point x="251" y="70" type="curve" smooth="yes"/>
      <point x="201" y="70"/>
      <point x="170" y="85"/>
      <point x="170" y="132" type="curve" smooth="yes"/>
      <point x="170" y="568" type="line" smooth="yes"/>
      <point x="170" y="615"/>
      <point x="201" y="630"/>
      <point x="251" y="630" type="curve" smooth="yes"/>
      <point x="301" y="630"/>
      <point x="332" y="615"/>
      <point x="332" y="568" type="curve" smooth="yes"/>
      <point x="332" y="132" type="line" smooth="yes"/>
      <point x="332" y="85"/>
      <point x="301" y="70"/>
    </contour>
  </outline>
</glyph>
<glyph name="P" format="2">
  <advance width="492"/>
  <unicode hex="0050"/>
  <guideline x="174" y="371" angle="180"/>
  <anchor x="246" y="0" name="bottom"/>
  <anchor x="246" y="700" name="top"/>
  <outline>
    <contour>
      <point x="60" y="0" type="line"/>
      <point x="180" y="0" type="line"/>
      <point x="180" y="700" type="line"/>
      <point x="60" y="700" type="line"/>
    </contour>
    <contour>
      <point x="136" y="191" type="line"/>
      <point x="251" y="191" type="line"/>
      <point x="251" y="271" type="line"/>
      <point x="136" y="271" type="line"/>
    </contour>
    <contour>
      <point x="251" y="271" type="curve"/>
      <point x="251" y="191" type="line"/>
      <point x="401" y="191"/>
      <point x="452" y="239"/>
      <point x="452" y="333" type="curve"/>
      <point x="332" y="333" type="line"/>
      <point x="332" y="286"/>
      <point x="301" y="271"/>
    </contour>
    <contour>
      <point x="332" y="333" type="line"/>
      <point x="452" y="333" type="line"/>
      <point x="452" y="558" type="line"/>
      <point x="332" y="558" type="line"/>
    </contour>
    <contour>
      <point x="136" y="620" type="line"/>
      <point x="251" y="620" type="line"/>
      <point x="251" y="700" type="line"/>
      <point x="136" y="700" type="line"/>
    </contour>
    <contour>
      <point x="332" y="558" type="curve"/>
      <point x="452" y="558" type="line"/>
      <point x="452" y="652"/>
      <point x="401" y="700"/>
      <point x="251" y="700" type="curve"/>
      <point x="251" y="620" type="line"/>
      <point x="301" y="620"/>
      <point x="332" y="605"/>
    </contour>
  </outline>
</glyph>
<glyph name="Q" format="2">
  <advance width="502"/>
  <unicode hex="0051"/>
  <anchor x="251" y="0" name="bottom"/>
  <anchor x="251" y="700" name="top"/>
  <outline>
    <component base="O"/>
    <contour>
      <point x="310" y="-90" type="line"/>
      <point x="284" y="188" type="line"/>
      <point x="216" y="188" type="line"/>
      <point x="242" y="-90" type="line"/>
    </contour>
  </outline>
</glyph>
<glyph name="R" format="2">
  <advance width="508"/>
  <unicode hex="0052"/>
  <guideline x="174" y="371" angle="180"/>
  <anchor x="256" y="0" name="bottom"/>
  <anchor x="256" y="700" name="top"/>
  <outline>
    <contour>
      <point x="60" y="0" type="line"/>
      <point x="180" y="0" type="line"/>
      <point x="180" y="700" type="line"/>
      <point x="60" y="700" type="line"/>
    </contour>
    <contour>
      <point x="343" y="177" type="curve" smooth="yes"/>
      <point x="343" y="0" type="line"/>
      <point x="461" y="0" type="line"/>
      <point x="461" y="187" type="line" smooth="yes"/>
      <point x="461" y="372"/>
      <point x="406" y="380"/>
      <point x="232" y="380" type="curve"/>
      <point x="232" y="330" type="line"/>
      <point x="290" y="330"/>
      <point x="343" y="316"/>
    </contour>
    <contour>
      <point x="80" y="330" type="line"/>
      <point x="267" y="330" type="line"/>
      <point x="267" y="420" type="line"/>
      <point x="80" y="420" type="line"/>
    </contour>
    <contour>
      <point x="80" y="610" type="line"/>
      <point x="257" y="610" type="line"/>
      <point x="257" y="700" type="line"/>
      <point x="80" y="700" type="line"/>
    </contour>
    <contour>
      <point x="252" y="420" type="curve"/>
      <point x="252" y="370" type="line"/>
      <point x="436" y="370"/>
      <point x="462" y="444"/>
      <point x="462" y="550" type="curve" smooth="yes"/>
      <point x="462" y="676"/>
      <point x="359" y="700"/>
      <point x="257" y="700" type="curve"/>
      <point x="257" y="610" type="line"/>
      <point x="315" y="610"/>
      <point x="342" y="595"/>
      <point x="342" y="535" type="curve" smooth="yes"/>
      <point x="342" y="496"/>
      <point x="332" y="420"/>
    </contour>
  </outline>
</glyph>
<glyph name="S" format="2">
  <advance width="485"/>
  <unicode hex="0053"/>
  <guideline x="891" y="562" angle="90"/>
  <guideline x="613" y="-10"/>
  <guideline x="245" y="80" angle="90"/>
  <guideline x="392" y="248" angle="180"/>
  <anchor x="245" y="0" name="bottom"/>
  <anchor x="245" y="700" name="top"/>
  <outline>
    <contour>
      <point x="245" y="-10" type="curve" smooth="yes"/>
      <point x="383" y="-10"/>
      <point x="456" y="82"/>
      <point x="456" y="190" type="curve" smooth="yes"/>
      <point x="456" y="311"/>
      <point x="361" y="378"/>
      <point x="294" y="412" type="curve" smooth="yes"/>
      <point x="245" y="437" type="line" smooth="yes"/>
      <point x="194" y="463"/>
      <point x="159" y="498"/>
      <point x="159" y="548" type="curve" smooth="yes"/>
      <point x="159" y="592"/>
      <point x="186" y="630"/>
      <point x="245" y="630" type="curve" smooth="yes"/>
      <point x="314" y="630"/>
      <point x="342" y="607"/>
      <point x="342" y="493" type="curve"/>
      <point x="462" y="493" type="line"/>
      <point x="462" y="651"/>
      <point x="402" y="720"/>
      <point x="245" y="720" type="curve" smooth="yes"/>
      <point x="100" y="720"/>
      <point x="38" y="633"/>
      <point x="38" y="534" type="curve" smooth="yes"/>
      <point x="38" y="464"/>
      <point x="69" y="384"/>
      <point x="185" y="322" type="curve" smooth="yes"/>
      <point x="230" y="298" type="line" smooth="yes"/>
      <point x="285" y="269"/>
      <point x="336" y="234"/>
      <point x="336" y="176" type="curve" smooth="yes"/>
      <point x="336" y="113"/>
      <point x="293" y="80"/>
      <point x="245" y="80" type="curve" smooth="yes"/>
      <point x="177" y="80"/>
      <point x="143" y="127"/>
      <point x="143" y="238" type="curve"/>
      <point x="21" y="238" type="line"/>
      <point x="21" y="72"/>
      <point x="95" y="-10"/>
    </contour>
  </outline>
</glyph>
<glyph name="T" format="2">
  <advance width="410"/>
  <unicode hex="0054"/>
  <anchor x="205" y="0" name="bottom"/>
  <anchor x="205" y="350" name="center"/>
  <anchor x="205" y="700" name="top"/>
  <outline>
    <contour>
      <point x="145" y="0" type="line"/>
      <point x="265" y="0" type="line"/>
      <point x="265" y="700" type="line"/>
      <point x="145" y="700" type="line"/>
    </contour>
    <contour>
      <point x="20" y="610" type="line"/>
      <point x="390" y="610" type="line"/>
      <point x="390" y="700" type="line"/>
      <point x="20" y="700" type="line"/>
    </contour>
  </outline>
</glyph>
<glyph name="U" format="2">
  <advance width="506"/>
  <unicode hex="0055"/>
  <anchor x="253" y="0" name="bottom"/>
  <anchor x="455" y="10" name="ogonek"/>
  <anchor x="253" y="700" name="top"/>
  <anchor x="486" y="700" name="topright"/>
  <outline>
    <contour>
      <point x="253" y="-10" type="curve" smooth="yes"/>
      <point x="399" y="-10"/>
      <point x="450" y="38"/>
      <point x="450" y="132" type="curve" smooth="yes"/>
      <point x="450" y="700" type="line"/>
      <point x="330" y="700" type="line"/>
      <point x="330" y="132" type="line" smooth="yes"/>
      <point x="330" y="85"/>
      <point x="299" y="70"/>
      <point x="253" y="70" type="curve" smooth="yes"/>
      <point x="207" y="70"/>
      <point x="176" y="85"/>
      <point x="176" y="132" type="curve" smooth="yes"/>
      <point x="176" y="700" type="line"/>
      <point x="56" y="700" type="line"/>
      <point x="56" y="132" type="line" smooth="yes"/>
      <point x="56" y="38"/>
      <point x="107" y="-10"/>
    </contour>
  </outline>
</glyph>
<glyph name="V" format="2">
  <advance width="464"/>
  <unicode hex="0056"/>
  <anchor x="244" y="0" name="bottom"/>
  <anchor x="241" y="700" name="top"/>
  <outline>
    <contour>
      <point x="136" y="0" type="line"/>
      <point x="256" y="0" type="line"/>
      <point x="140" y="700" type="line"/>
      <point x="20" y="700" type="line"/>
    </contour>
    <contour>
      <point x="232" y="0" type="line"/>
      <point x="332" y="0" type="line"/>
      <point x="448" y="700" type="line"/>
      <point x="348" y="700" type="line"/>
    </contour>
  </outline>
</glyph>
<glyph name="W" format="2">
  <advance width="743"/>
  <unicode hex="0057"/>
  <guideline x="352" y="105"/>
  <anchor x="369" y="0" name="bottom"/>
  <anchor x="369" y="700" name="top"/>
  <outline>
    <contour>
      <point x="125" y="0" type="line"/>
      <point x="245" y="0" type="line"/>
      <point x="140" y="700" type="line"/>
      <point x="20" y="700" type="line"/>
    </contour>
    <contour>
      <point x="225" y="0" type="line"/>
      <point x="305" y="0" type="line"/>
      <point x="374" y="700" type="line"/>
      <point x="294" y="700" type="line"/>
    </contour>
    <contour>
      <point x="432" y="0" type="line"/>
      <point x="532" y="0" type="line"/>
      <point x="462" y="700" type="line"/>
      <point x="362" y="700" type="line"/>
    </contour>
    <contour>
      <point x="512" y="0" type="line"/>
      <point x="622" y="0" type="line"/>
      <point x="727" y="700" type="line"/>
      <point x="617" y="700" type="line"/>
    </contour>
  </outline>
</glyph>
<glyph name="X" format="2">
  <advance width="460"/>
  <unicode hex="0058"/>
  <anchor x="230" y="0" name="bottom"/>
  <anchor x="230" y="700" name="top"/>
  <outline>
    <contour>
      <point x="316" y="0" type="line"/>
      <point x="436" y="0" type="line"/>
      <point x="136" y="700" type="line"/>
      <point x="16" y="700" type="line"/>
    </contour>
    <contour>
      <point x="23" y="0" type="line"/>
      <point x="123" y="0" type="line"/>
      <point x="284" y="410" type="line"/>
      <point x="184" y="410" type="line"/>
    </contour>
    <contour>
      <point x="183" y="290" type="line"/>
      <point x="283" y="290" type="line"/>
      <point x="444" y="700" type="line"/>
      <point x="344" y="700" type="line"/>
    </contour>
  </outline>
</glyph>
<glyph name="Y" format="2">
  <advance width="440"/>
  <unicode hex="0059"/>
  <anchor x="218" y="0" name="bottom"/>
  <anchor x="218" y="700" name="top"/>
  <anchor x="0" y="700" name="topleft"/>
  <outline>
    <contour>
      <point x="165" y="164" type="line"/>
      <point x="280" y="164" type="line"/>
      <point x="131" y="700" type="line"/>
      <point x="16" y="700" type="line"/>
    </contour>
    <contour>
      <point x="163" y="0" type="line"/>
      <point x="283" y="0" type="line"/>
      <point x="283" y="256" type="line"/>
      <point x="163" y="256" type="line"/>
    </contour>
    <contour>
      <point x="186" y="164" type="line"/>
      <point x="281" y="164" type="line"/>
      <point x="430" y="699" type="line"/>
      <point x="335" y="699" type="line"/>
    </contour>
  </outline>
</glyph>
<glyph name="Z" format="2">
  <advance width="410"/>
  <unicode hex="005A"/>
  <anchor x="200" y="0" name="bottom"/>
  <anchor x="200" y="350" name="center"/>
  <anchor x="200" y="700" name="top"/>
  <outline>
    <contour>
      <point x="30" y="90" type="line"/>
      <point x="160" y="90" type="line"/>
      <point x="380" y="610" type="line"/>
      <point x="250" y="610" type="line"/>
    </contour>
    <contour>
      <point x="30" y="0" type="line"/>
      <point x="390" y="0" type="line"/>
      <point x="390" y="90" type="line"/>
      <point x="30" y="90" type="line"/>
    </contour>
    <contour>
      <point x="20" y="610" type="line"/>
      <point x="380" y="610" type="line"/>
      <point x="380" y="700" type="line"/>
      <point x="20" y="700" type="line"/>
    </contour>
  </outline>
</glyph>
<glyph name="bracketleft" format="2">
  <advance width="293"/>
  <unicode hex="005B"/>
  <outline>
    <contour>
      <point x="60" y="-110" type="line"/>
      <point x="172" y="-110" type="line"/>
      <point x="172" y="700" type="line"/>
      <point x="60" y="700" type="line"/>
    </contour>
    <contour>
      <point x="120" y="-110" type="line"/>
      <point x="267" y="-110" type="line"/>
      <point x="267" y="-20" type="line"/>
      <point x="120" y="-20" type="line"/>
    </contour>
    <contour>
      <point x="120" y="610" type="line"/>
      <point x="267" y="610" type="line"/>
      <point x="267" y="700" type="line"/>
      <point x="120" y="700" type="line"/>
    </contour>
  </outline>
</glyph>
<glyph name="bracketright" format="2">
  <advance width="293"/>
  <unicode hex="005D"/>
  <outline>
    <contour>
      <point x="233" y="-110" type="line"/>
      <point x="233" y="700" type="line"/>
      <point x="121" y="700" type="line"/>
      <point x="121" y="-110" type="line"/>
    </contour>
    <contour>
      <point x="173" y="-110" type="line"/>
      <point x="173" y="-20" type="line"/>
      <point x="26" y="-20" type="line"/>
      <point x="26" y="-110" type="line"/>
    </contour>
    <contour>
      <point x="173" y="610" type="line"/>
      <point x="173" y="700" type="line"/>
      <point x="26" y="700" type="line"/>
      <point x="26" y="610" type="line"/>
    </contour>
  </outline>
</glyph>
<glyph name="asciicircum" format="2">
  <advance width="320"/>
  <unicode hex="005E"/>
  <outline>
    <contour>
      <point x="214" y="417" type="line"/>
      <point x="304" y="417" type="line"/>
      <point x="239" y="700" type="line"/>
      <point x="149" y="700" type="line"/>
    </contour>
    <contour>
      <point x="16" y="417" type="line"/>
      <point x="106" y="417" type="line"/>
      <point x="171" y="700" type="line"/>
      <point x="81" y="700" type="line"/>
    </contour>
  </outline>
</glyph>
<glyph name="underscore" format="2">
  <advance width="268"/>
  <unicode hex="005F"/>
  <outline>
    <contour>
      <point x="20" y="-86" type="line"/>
      <point x="248" y="-86" type="line"/>
      <point x="248" y="-21" type="line"/>
      <point x="20" y="-21" type="line"/>
    </contour>
  </outline>
</glyph>
<glyph name="a" format="2">
  <advance width="443"/>
  <unicode hex="0061"/>
  <anchor x="226" y="0" name="bottom"/>
  <anchor x="411" y="10" name="ogonek"/>
  <anchor x="229" y="470" name="top"/>
  <outline>
    <contour>
      <point x="30" y="120" type="curve" smooth="yes"/>
      <point x="30" y="39"/>
      <point x="80" y="-10"/>
      <point x="161" y="-10" type="curve" smooth="yes"/>
      <point x="247" y="-10"/>
      <point x="299" y="37"/>
      <point x="299" y="120" type="curve"/>
      <point x="285" y="120" type="line"/>
      <point x="285" y="0" type="line"/>
      <point x="397" y="0" type="line"/>
      <point x="397" y="350" type="line" smooth="yes"/>
      <point x="397" y="442"/>
      <point x="331" y="480"/>
      <point x="229" y="480" type="curve" smooth="yes"/>
      <point x="88" y="480"/>
      <point x="30" y="407"/>
      <point x="30" y="300" type="curve"/>
      <point x="150" y="300" type="line"/>
      <point x="150" y="376"/>
      <point x="190" y="400"/>
      <point x="229" y="400" type="curve" smooth="yes"/>
      <point x="263" y="400"/>
      <point x="285" y="381"/>
      <point x="285" y="346" type="curve" smooth="yes"/>
      <point x="285" y="228"/>
      <point x="30" y="302"/>
    </contour>
    <contour>
      <point x="206" y="72" type="curve" smooth="yes"/>
      <point x="171" y="72"/>
      <point x="150" y="94"/>
      <point x="150" y="124" type="curve" smooth="yes"/>
      <point x="150" y="160"/>
      <point x="180" y="175"/>
      <point x="213" y="188" type="curve" smooth="yes"/>
      <point x="250" y="203"/>
      <point x="304" y="220"/>
      <point x="304" y="269" type="curve"/>
      <point x="285" y="269" type="line"/>
      <point x="285" y="181" type="line" smooth="yes"/>
      <point x="285" y="103"/>
      <point x="248" y="72"/>
    </contour>
  </outline>
</glyph>
<glyph name="c" format="2">
  <advance width="429"/>
  <unicode hex="0063"/>
  <guideline x="544" y="400"/>
  <anchor x="223" y="0" name="bottom"/>
  <anchor x="223" y="470" name="top"/>
  <outline>
    <contour>
      <point x="223" y="-10" type="curve"/>
      <point x="223" y="70" type="line"/>
      <point x="178" y="70"/>
      <point x="148" y="127"/>
      <point x="148" y="235" type="curve" smooth="yes"/>
      <point x="148" y="346"/>
      <point x="180" y="400"/>
      <point x="223" y="400" type="curve"/>
      <point x="223" y="480" type="line"/>
      <point x="110" y="480"/>
      <point x="24" y="412"/>
      <point x="24" y="235" type="curve" smooth="yes"/>
      <point x="24" y="81"/>
      <point x="89" y="-10"/>
    </contour>
    <contour>
      <point x="223" y="70" type="curve"/>
      <point x="223" y="-10" type="line"/>
      <point x="349" y="-10"/>
      <point x="408" y="70"/>
      <point x="408" y="177" type="curve"/>
      <point x="284" y="177" type="line"/>
      <point x="284" y="101"/>
      <point x="256" y="70"/>
    </contour>
    <contour>
      <point x="282" y="272" type="curve"/>
      <point x="408" y="272" type="line"/>
      <point x="408" y="423"/>
      <point x="328" y="480"/>
      <point x="223" y="480" type="curve"/>
      <point x="223" y="400" type="line"/>
      <point x="261" y="400"/>
      <point x="282" y="357"/>
    </contour>
  </outline>
</glyph>
<glyph name="d" format="2">
  <advance width="456"/>
  <unicode hex="0064"/>
  <guideline x="286" y="215" angle="270"/>
  <guideline x="295" y="-8"/>
  <guideline x="556" y="400"/>
  <guideline x="239" y="480"/>
  <guideline x="517" y="77"/>
  <anchor x="228" y="0" name="bottom"/>
  <anchor x="342" y="576" name="center"/>
  <anchor x="228" y="470" name="top"/>
  <anchor x="536" y="720" name="topright"/>
  <outline>
    <contour>
      <point x="406" y="720" type="line"/>
      <point x="294" y="720" type="line"/>
      <point x="294" y="0" type="line"/>
      <point x="406" y="0" type="line"/>
    </contour>
    <contour>
      <point x="148" y="235" type="curve" smooth="yes"/>
      <point x="148" y="340"/>
      <point x="173" y="400"/>
      <point x="217" y="400" type="curve" smooth="yes"/>
      <point x="255" y="400"/>
      <point x="294" y="358"/>
      <point x="294" y="249" type="curve"/>
      <point x="305" y="249" type="line"/>
      <point x="321" y="362" type="line"/>
      <point x="305" y="418"/>
      <point x="280" y="480"/>
      <point x="192" y="480" type="curve" smooth="yes"/>
      <point x="85" y="480"/>
      <point x="24" y="384"/>
      <point x="24" y="235" type="curve" smooth="yes"/>
      <point x="24" y="86"/>
      <point x="85" y="-10"/>
      <point x="192" y="-10" type="curve" smooth="yes"/>
      <point x="280" y="-10"/>
      <point x="315" y="52"/>
      <point x="331" y="108" type="curve"/>
      <point x="305" y="221" type="line"/>
      <point x="294" y="221" type="line"/>
      <point x="294" y="112"/>
      <point x="255" y="70"/>
      <point x="217" y="70" type="curve" smooth="yes"/>
      <point x="173" y="70"/>
      <point x="148" y="130"/>
    </contour>
  </outline>
</glyph>
<glyph name="e" format="2">
  <advance width="443"/>
  <unicode hex="0065"/>
  <anchor x="234" y="0" name="bottom"/>
  <anchor x="425" y="10" name="ogonek"/>
  <anchor x="234" y="470" name="top"/>
  <outline>
    <contour>
      <point x="228" y="-10" type="curve"/>
      <point x="228" y="70" type="line"/>
      <point x="183" y="70"/>
      <point x="148" y="127"/>
      <point x="148" y="235" type="curve" smooth="yes"/>
      <point x="148" y="346"/>
      <point x="185" y="400"/>
      <point x="228" y="400" type="curve"/>
      <point x="228" y="480" type="line"/>
      <point x="115" y="480"/>
      <point x="24" y="412"/>
      <point x="24" y="235" type="curve" smooth="yes"/>
      <point x="24" y="81"/>
      <point x="94" y="-10"/>
    </contour>
    <contour>
      <point x="87" y="235" type="line"/>
      <point x="404" y="235" type="line"/>
      <point x="404" y="300" type="line"/>
      <point x="87" y="300" type="line"/>
    </contour>
    <contour>
      <point x="228" y="70" type="curve"/>
      <point x="228" y="-10" type="line"/>
      <point x="354" y="-10"/>
      <point x="418" y="70"/>
      <point x="418" y="177" type="curve"/>
      <point x="294" y="177" type="line"/>
      <point x="294" y="101"/>
      <point x="261" y="70"/>
    </contour>
    <contour>
      <point x="293" y="235" type="curve"/>
      <point x="419" y="235" type="line"/>
      <point x="419" y="427"/>
      <point x="329" y="480"/>
      <point x="228" y="480" type="curve"/>
      <point x="228" y="400" type="line"/>
      <point x="266" y="400"/>
      <point x="293" y="358"/>
    </contour>
  </outline>
</glyph>
<glyph name="f" format="2">
  <advance width="348"/>
  <unicode hex="0066"/>
  <anchor x="192" y="0" name="bottom"/>
  <anchor x="192" y="720" name="top"/>
  <outline>
    <contour>
      <point x="116" y="0" type="line"/>
      <point x="228" y="0" type="line"/>
      <point x="228" y="582" type="line"/>
      <point x="116" y="582" type="line"/>
    </contour>
    <contour>
      <point x="16" y="380" type="line"/>
      <point x="328" y="380" type="line"/>
      <point x="328" y="470" type="line"/>
      <point x="16" y="470" type="line"/>
    </contour>
    <contour>
      <point x="116" y="582" type="curve"/>
      <point x="228" y="582" type="line"/>
      <point x="228" y="615"/>
      <point x="239" y="630"/>
      <point x="264" y="630" type="curve" smooth="yes"/>
      <point x="328" y="630" type="line"/>
      <point x="328" y="720" type="line"/>
      <point x="254" y="720" type="line" smooth="yes"/>
      <point x="151" y="720"/>
      <point x="116" y="689"/>
    </contour>
  </outline>
</glyph>
<glyph name="g" format="2">
  <advance width="452"/>
  <unicode hex="0067"/>
  <guideline x="238" y="73"/>
  <anchor x="229" y="-240" name="bottom"/>
  <anchor x="222" y="470" name="top"/>
  <outline>
    <contour>
      <point x="294" y="-106" type="line"/>
      <point x="294" y="-150"/>
      <point x="267" y="-170"/>
      <point x="229" y="-170" type="curve" smooth="yes"/>
      <point x="190" y="-170"/>
      <point x="163" y="-137"/>
      <point x="163" y="-63" type="curve"/>
      <point x="43" y="-63" type="line"/>
      <point x="43" y="-191"/>
      <point x="104" y="-250"/>
      <point x="229" y="-250" type="curve" smooth="yes"/>
      <point x="308" y="-250"/>
      <point x="406" y="-227"/>
      <point x="406" y="-106" type="curve" smooth="yes"/>
      <point x="406" y="470" type="line"/>
      <point x="294" y="470" type="line"/>
    </contour>
    <contour>
      <point x="148" y="235" type="curve"/>
      <point x="24" y="235" type="line"/>
      <point x="24" y="86"/>
      <point x="85" y="-10"/>
      <point x="192" y="-10" type="curve" smooth="yes"/>
      <point x="280" y="-10"/>
      <point x="305" y="52"/>
      <point x="321" y="108" type="curve"/>
      <point x="305" y="221" type="line"/>
      <point x="294" y="221" type="line"/>
      <point x="294" y="112"/>
      <point x="255" y="70"/>
      <point x="217" y="70" type="curve" smooth="yes"/>
      <point x="173" y="70"/>
      <point x="148" y="130"/>
    </contour>
    <contour>
      <point x="24" y="235" type="curve"/>
      <point x="148" y="235" type="line"/>
      <point x="148" y="340"/>
      <point x="173" y="400"/>
      <point x="217" y="400" type="curve" smooth="yes"/>
      <point x="255" y="400"/>
      <point x="294" y="358"/>
      <point x="294" y="249" type="curve"/>
      <point x="305" y="249" type="line"/>
      <point x="321" y="362" type="line"/>
      <point x="305" y="418"/>
      <point x="280" y="480"/>
      <point x="192" y="480" type="curve" smooth="yes"/>
      <point x="85" y="480"/>
      <point x="24" y="384"/>
    </contour>
  </outline>
</glyph>
<glyph name="k" format="2">
  <advance width="427"/>
  <unicode hex="006B"/>
  <guideline x="407" y="470" angle="90"/>
  <anchor x="214" y="0" name="bottom"/>
  <anchor x="214" y="720" name="top"/>
  <outline>
    <contour>
      <point x="49" y="143" type="line"/>
      <point x="119" y="76" type="line"/>
      <point x="407" y="470" type="line"/>
      <point x="288" y="470" type="line"/>
    </contour>
    <contour>
      <point x="46" y="0" type="line"/>
      <point x="158" y="0" type="line"/>
      <point x="158" y="720" type="line"/>
      <point x="46" y="720" type="line"/>
    </contour>
    <contour>
      <point x="253" y="370" type="line"/>
      <point x="201" y="238" type="line"/>
      <point x="307" y="0" type="line"/>
      <point x="417" y="0" type="line"/>
    </contour>
  </outline>
</glyph>
<glyph name="l" format="2">
  <advance width="240"/>
  <unicode hex="006C"/>
  <anchor x="131" y="0" name="bottom"/>
  <anchor x="131" y="235" name="center"/>
  <anchor x="131" y="720" name="top"/>
  <anchor x="306" y="720" name="topright"/>
  <outline>
    <contour>
      <point x="46" y="138" type="line"/>
      <point x="158" y="138" type="line"/>
      <point x="158" y="720" type="line"/>
      <point x="46" y="720" type="line"/>
    </contour>
    <contour>
      <point x="184" y="0" type="curve" smooth="yes"/>
      <point x="224" y="0" type="line"/>
      <point x="224" y="90" type="line"/>
      <point x="194" y="90" type="line" smooth="yes"/>
      <point x="169" y="90"/>
      <point x="158" y="105"/>
      <point x="158" y="138" type="curve"/>
      <point x="46" y="138" type="line"/>
      <point x="46" y="31"/>
      <point x="81" y="0"/>
    </contour>
  </outline>
</glyph>
<glyph name="m" format="2">
  <advance width="660"/>
  <unicode hex="006D"/>
  <anchor x="334" y="0" name="bottom"/>
  <anchor x="334" y="470" name="top"/>
  <outline>
    <contour>
      <point x="46" y="0" type="line"/>
      <point x="158" y="0" type="line"/>
      <point x="158" y="470" type="line"/>
      <point x="46" y="470" type="line"/>
    </contour>
    <contour>
      <point x="502" y="0" type="line"/>
      <point x="614" y="0" type="line"/>
      <point x="614" y="322" type="line" smooth="yes"/>
      <point x="614" y="439"/>
      <point x="550" y="478"/>
      <point x="475" y="478" type="curve" smooth="yes"/>
      <point x="399" y="478"/>
      <point x="365" y="418"/>
      <point x="349" y="362" type="curve"/>
      <point x="375" y="249" type="line"/>
      <point x="386" y="249" type="line"/>
      <point x="386" y="358"/>
      <point x="415" y="398"/>
      <point x="452" y="398" type="curve" smooth="yes"/>
      <point x="481" y="398"/>
      <point x="510" y="373"/>
      <point x="507" y="301" type="curve" smooth="yes"/>
      <point x="502" y="197" type="line"/>
    </contour>
    <contour>
      <point x="274" y="0" type="line"/>
      <point x="386" y="0" type="line"/>
      <point x="386" y="322" type="line" smooth="yes"/>
      <point x="386" y="439"/>
      <point x="322" y="478"/>
      <point x="247" y="478" type="curve" smooth="yes"/>
      <point x="171" y="478"/>
      <point x="137" y="418"/>
      <point x="121" y="362" type="curve"/>
      <point x="147" y="249" type="line"/>
      <point x="158" y="249" type="line"/>
      <point x="158" y="358"/>
      <point x="187" y="398"/>
      <point x="224" y="398" type="curve" smooth="yes"/>
      <point x="253" y="398"/>
      <point x="282" y="373"/>
      <point x="279" y="301" type="curve" smooth="yes"/>
      <point x="274" y="197" type="line"/>
    </contour>
  </outline>
</glyph>
<glyph name="n" format="2">
  <advance width="452"/>
  <unicode hex="006E"/>
  <guideline x="180" y="289"/>
  <guideline x="360" y="478"/>
  <anchor x="226" y="0" name="bottom"/>
  <anchor x="226" y="470" name="top"/>
  <outline>
    <contour>
      <point x="294" y="0" type="line"/>
      <point x="406" y="0" type="line"/>
      <point x="406" y="322" type="line" smooth="yes"/>
      <point x="406" y="439"/>
      <point x="332" y="478"/>
      <point x="257" y="478" type="curve" smooth="yes"/>
      <point x="181" y="478"/>
      <point x="137" y="418"/>
      <point x="121" y="362" type="curve"/>
      <point x="147" y="249" type="line"/>
      <point x="158" y="249" type="line"/>
      <point x="158" y="358"/>
      <point x="187" y="398"/>
      <point x="234" y="398" type="curve" smooth="yes"/>
      <point x="263" y="398"/>
      <point x="302" y="373"/>
      <point x="299" y="301" type="curve" smooth="yes"/>
      <point x="294" y="197" type="line"/>
    </contour>
    <contour>
      <point x="46" y="0" type="line"/>
      <point x="158" y="0" type="line"/>
      <point x="158" y="470" type="line"/>
      <point x="46" y="470" type="line"/>
    </contour>
  </outline>
</glyph>
<glyph name="o" format="2">
  <advance width="446"/>
  <unicode hex="006F"/>
  <guideline x="223" y="-10"/>
  <anchor x="223" y="0" name="bottom"/>
  <anchor x="223" y="235" name="center"/>
  <anchor x="400" y="10" name="ogonek"/>
  <anchor x="223" y="470" name="top"/>
  <anchor x="424" y="470" name="topright"/>
  <outline>
    <contour>
      <point x="223" y="400" type="curve"/>
      <point x="223" y="480" type="line"/>
      <point x="111" y="480"/>
      <point x="24" y="412"/>
      <point x="24" y="235" type="curve" smooth="yes"/>
      <point x="24" y="81"/>
      <point x="89" y="-10"/>
      <point x="223" y="-10" type="curve"/>
      <point x="223" y="70" type="line"/>
      <point x="178" y="70"/>
      <point x="148" y="127"/>
      <point x="148" y="235" type="curve" smooth="yes"/>
      <point x="148" y="346"/>
      <point x="180" y="400"/>
    </contour>
    <contour>
      <point x="223" y="480" type="curve"/>
      <point x="223" y="400" type="line"/>
      <point x="266" y="400"/>
      <point x="298" y="346"/>
      <point x="298" y="235" type="curve" smooth="yes"/>
      <point x="298" y="127"/>
      <point x="268" y="70"/>
      <point x="223" y="70" type="curve"/>
      <point x="223" y="-10" type="line"/>
      <point x="357" y="-10"/>
      <point x="422" y="81"/>
      <point x="422" y="235" type="curve" smooth="yes"/>
      <point x="422" y="412"/>
      <point x="335" y="480"/>
    </contour>
  </outline>
</glyph>
<glyph name="p" format="2">
  <advance width="452"/>
  <unicode hex="0070"/>
  <outline>
    <contour>
      <point x="46" y="-240" type="line"/>
      <point x="158" y="-240" type="line"/>
      <point x="158" y="470" type="line"/>
      <point x="46" y="470" type="line"/>
    </contour>
    <contour>
      <point x="304" y="235" type="curve" smooth="yes"/>
      <point x="304" y="130"/>
      <point x="279" y="70"/>
      <point x="235" y="70" type="curve" smooth="yes"/>
      <point x="197" y="70"/>
      <point x="158" y="112"/>
      <point x="158" y="221" type="curve"/>
      <point x="147" y="221" type="line"/>
      <point x="131" y="108" type="line"/>
      <point x="147" y="52"/>
      <point x="172" y="-10"/>
      <point x="260" y="-10" type="curve" smooth="yes"/>
      <point x="367" y="-10"/>
      <point x="428" y="86"/>
      <point x="428" y="235" type="curve" smooth="yes"/>
      <point x="428" y="384"/>
      <point x="367" y="480"/>
      <point x="260" y="480" type="curve" smooth="yes"/>
      <point x="172" y="480"/>
      <point x="137" y="418"/>
      <point x="121" y="362" type="curve"/>
      <point x="147" y="249" type="line"/>
      <point x="158" y="249" type="line"/>
      <point x="158" y="358"/>
      <point x="197" y="400"/>
      <point x="235" y="400" type="curve" smooth="yes"/>
      <point x="279" y="400"/>
      <point x="304" y="340"/>
    </contour>
  </outline>
</glyph>
<glyph name="q" format="2">
  <advance width="452"/>
  <unicode hex="0071"/>
  <outline>
    <contour>
      <point x="406" y="470" type="line"/>
      <point x="294" y="470" type="line"/>
      <point x="294" y="-240" type="line"/>
      <point x="406" y="-240" type="line"/>
    </contour>
    <contour>
      <point x="148" y="235" type="curve" smooth="yes"/>
      <point x="148" y="340"/>
      <point x="173" y="400"/>
      <point x="217" y="400" type="curve" smooth="yes"/>
      <point x="255" y="400"/>
      <point x="294" y="358"/>
      <point x="294" y="249" type="curve"/>
      <point x="305" y="249" type="line"/>
      <point x="321" y="362" type="line"/>
      <point x="305" y="418"/>
      <point x="280" y="480"/>
      <point x="192" y="480" type="curve" smooth="yes"/>
      <point x="85" y="480"/>
      <point x="24" y="384"/>
      <point x="24" y="235" type="curve" smooth="yes"/>
      <point x="24" y="86"/>
      <point x="85" y="-10"/>
      <point x="192" y="-10" type="curve" smooth="yes"/>
      <point x="280" y="-10"/>
      <point x="315" y="52"/>
      <point x="331" y="108" type="curve"/>
      <point x="305" y="221" type="line"/>
      <point x="294" y="221" type="line"/>
      <point x="294" y="112"/>
      <point x="255" y="70"/>
      <point x="217" y="70" type="curve" smooth="yes"/>
      <point x="173" y="70"/>
      <point x="148" y="130"/>
    </contour>
  </outline>
</glyph>
<glyph name="r" format="2">
  <advance width="300"/>
  <unicode hex="0072"/>
  <anchor x="102" y="0" name="bottom"/>
  <anchor x="162" y="470" name="top"/>
  <outline>
    <contour>
      <point x="46" y="0" type="line"/>
      <point x="158" y="0" type="line"/>
      <point x="158" y="470" type="line"/>
      <point x="46" y="470" type="line"/>
    </contour>
    <contour>
      <point x="284" y="358" type="curve"/>
      <point x="284" y="478" type="line"/>
      <point x="208" y="478"/>
      <point x="137" y="401"/>
      <point x="121" y="302" type="curve"/>
      <point x="147" y="229" type="line"/>
      <point x="158" y="229" type="line"/>
      <point x="158" y="328"/>
      <point x="212" y="358"/>
    </contour>
  </outline>
</glyph>
<glyph name="s" format="2">
  <advance width="416"/>
  <unicode hex="0073"/>
  <guideline x="388" y="30" angle="90"/>
  <anchor x="221" y="0" name="bottom"/>
  <anchor x="221" y="470" name="top"/>
  <outline>
    <contour>
      <point x="214" y="-10" type="curve" smooth="yes"/>
      <point x="334" y="-10"/>
      <point x="392" y="57"/>
      <point x="392" y="132" type="curve" smooth="yes"/>
      <point x="392" y="193"/>
      <point x="354" y="250"/>
      <point x="266" y="277" type="curve" smooth="yes"/>
      <point x="220" y="291" type="line" smooth="yes"/>
      <point x="173" y="305"/>
      <point x="150" y="324"/>
      <point x="150" y="349" type="curve" smooth="yes"/>
      <point x="150" y="374"/>
      <point x="171" y="400"/>
      <point x="215" y="400" type="curve" smooth="yes"/>
      <point x="261" y="400"/>
      <point x="284" y="372"/>
      <point x="284" y="331" type="curve"/>
      <point x="391" y="331" type="line"/>
      <point x="391" y="393"/>
      <point x="359" y="480"/>
      <point x="214" y="480" type="curve" smooth="yes"/>
      <point x="87" y="480"/>
      <point x="36" y="413"/>
      <point x="36" y="341" type="curve" smooth="yes"/>
      <point x="36" y="285"/>
      <point x="67" y="223"/>
      <point x="178" y="189" type="curve" smooth="yes"/>
      <point x="223" y="175" type="line" smooth="yes"/>
      <point x="260" y="164"/>
      <point x="278" y="145"/>
      <point x="278" y="122" type="curve" smooth="yes"/>
      <point x="278" y="95"/>
      <point x="255" y="71"/>
      <point x="215" y="71" type="curve" smooth="yes"/>
      <point x="166" y="71"/>
      <point x="131" y="89"/>
      <point x="131" y="150" type="curve"/>
      <point x="24" y="150" type="line"/>
      <point x="26" y="38"/>
      <point x="105" y="-10"/>
    </contour>
  </outline>
</glyph>
<glyph name="t" format="2">
  <advance width="328"/>
  <unicode hex="0074"/>
  <guideline x="168" y="470" angle="180"/>
  <guideline x="386" y="700" angle="180"/>
  <anchor x="224" y="0" name="bottom"/>
  <anchor x="182" y="235" name="center"/>
  <anchor x="182" y="470" name="top"/>
  <anchor x="354" y="720" name="topright"/>
  <outline>
    <contour>
      <point x="106" y="138" type="line"/>
      <point x="218" y="138" type="line"/>
      <point x="218" y="720" type="line"/>
      <point x="106" y="720" type="line"/>
    </contour>
    <contour>
      <point x="244" y="0" type="curve" smooth="yes"/>
      <point x="308" y="0" type="line"/>
      <point x="308" y="90" type="line"/>
      <point x="254" y="90" type="line" smooth="yes"/>
      <point x="229" y="90"/>
      <point x="218" y="105"/>
      <point x="218" y="138" type="curve"/>
      <point x="106" y="138" type="line"/>
      <point x="106" y="31"/>
      <point x="141" y="0"/>
    </contour>
    <contour>
      <point x="16" y="380" type="line"/>
      <point x="308" y="380" type="line"/>
      <point x="308" y="470" type="line"/>
      <point x="16" y="470" type="line"/>
    </contour>
  </outline>
</glyph>
<glyph name="u" format="2">
  <advance width="452"/>
  <unicode hex="0075"/>
  <anchor x="226" y="0" name="bottom"/>
  <anchor x="410" y="10" name="ogonek"/>
  <anchor x="226" y="470" name="top"/>
  <anchor x="436" y="470" name="topright"/>
  <outline>
    <contour>
      <point x="158" y="470" type="line"/>
      <point x="46" y="470" type="line"/>
      <point x="46" y="148" type="line" smooth="yes"/>
      <point x="46" y="31"/>
      <point x="120" y="-8"/>
      <point x="195" y="-8" type="curve" smooth="yes"/>
      <point x="271" y="-8"/>
      <point x="305" y="52"/>
      <point x="321" y="108" type="curve"/>
      <point x="305" y="221" type="line"/>
      <point x="294" y="221" type="line"/>
      <point x="294" y="112"/>
      <point x="265" y="72"/>
      <point x="218" y="72" type="curve" smooth="yes"/>
      <point x="189" y="72"/>
      <point x="150" y="97"/>
      <point x="153" y="169" type="curve" smooth="yes"/>
      <point x="158" y="273" type="line"/>
    </contour>
    <contour>
      <point x="406" y="470" type="line"/>
      <point x="294" y="470" type="line"/>
      <point x="294" y="0" type="line"/>
      <point x="406" y="0" type="line"/>
    </contour>
  </outline>
</glyph>
<glyph name="v" format="2">
  <advance width="421"/>
  <unicode hex="0076"/>
  <anchor x="211" y="0" name="bottom"/>
  <anchor x="211" y="470" name="top"/>
  <outline>
    <contour>
      <point x="108" y="0" type="line"/>
      <point x="227" y="0" type="line"/>
      <point x="129" y="470" type="line"/>
      <point x="10" y="470" type="line"/>
    </contour>
    <contour>
      <point x="203" y="0" type="line"/>
      <point x="313" y="0" type="line"/>
      <point x="411" y="470" type="line"/>
      <point x="301" y="470" type="line"/>
    </contour>
  </outline>
</glyph>
<glyph name="w" format="2">
  <advance width="632"/>
  <unicode hex="0077"/>
  <anchor x="316" y="0" name="bottom"/>
  <anchor x="316" y="470" name="top"/>
  <outline>
    <contour>
      <point x="88" y="0" type="line"/>
      <point x="198" y="0" type="line"/>
      <point x="120" y="470" type="line"/>
      <point x="10" y="470" type="line"/>
    </contour>
    <contour>
      <point x="179" y="0" type="line"/>
      <point x="258" y="0" type="line"/>
      <point x="336" y="470" type="line"/>
      <point x="257" y="470" type="line"/>
    </contour>
    <contour>
      <point x="383" y="0" type="line"/>
      <point x="464" y="0" type="line"/>
      <point x="386" y="470" type="line"/>
      <point x="305" y="470" type="line"/>
    </contour>
    <contour>
      <point x="445" y="0" type="line"/>
      <point x="544" y="0" type="line"/>
      <point x="622" y="470" type="line"/>
      <point x="523" y="470" type="line"/>
    </contour>
  </outline>
</glyph>
<glyph name="x" format="2">
  <advance width="388"/>
  <unicode hex="0078"/>
  <outline>
    <contour>
      <point x="258" y="0" type="line"/>
      <point x="378" y="0" type="line"/>
      <point x="130" y="470" type="line"/>
      <point x="10" y="470" type="line"/>
    </contour>
    <contour>
      <point x="10" y="0" type="line"/>
      <point x="99" y="0" type="line"/>
      <point x="206" y="270" type="line"/>
      <point x="117" y="270" type="line"/>
    </contour>
    <contour>
      <point x="182" y="200" type="line"/>
      <point x="271" y="200" type="line"/>
      <point x="378" y="470" type="line"/>
      <point x="289" y="470" type="line"/>
    </contour>
  </outline>
</glyph>
<glyph name="y" format="2">
  <advance width="421"/>
  <unicode hex="0079"/>
  <anchor x="211" y="0" name="bottom"/>
  <anchor x="211" y="470" name="top"/>
  <outline>
    <contour>
      <point x="149" y="-240" type="line"/>
      <point x="259" y="-240" type="line"/>
      <point x="411" y="470" type="line"/>
      <point x="301" y="470" type="line"/>
    </contour>
    <contour>
      <point x="117" y="-44" type="line"/>
      <point x="236" y="-44" type="line"/>
      <point x="129" y="470" type="line"/>
      <point x="10" y="470" type="line"/>
    </contour>
  </outline>
</glyph>
<glyph name="z" format="2">
  <advance width="375"/>
  <unicode hex="007A"/>
  <anchor x="188" y="0" name="bottom"/>
  <anchor x="188" y="235" name="center"/>
  <anchor x="188" y="470" name="top"/>
  <outline>
    <contour>
      <point x="40" y="90" type="line"/>
      <point x="160" y="90" type="line"/>
      <point x="335" y="380" type="line"/>
      <point x="215" y="380" type="line"/>
    </contour>
    <contour>
      <point x="40" y="0" type="line"/>
      <point x="345" y="0" type="line"/>
      <point x="345" y="90" type="line"/>
      <point x="40" y="90" type="line"/>
    </contour>
    <contour>
      <point x="30" y="380" type="line"/>
      <point x="335" y="380" type="line"/>
      <point x="335" y="470" type="line"/>
      <point x="30" y="470" type="line"/>
    </contour>
  </outline>
</glyph>
<glyph name="braceleft" format="2">
  <advance width="290"/>
  <unicode hex="007B"/>
  <outline>
    <contour>
      <point x="84" y="562" type="line"/>
      <point x="84" y="395" type="line"/>
      <point x="196" y="395" type="line"/>
      <point x="196" y="562" type="line"/>
    </contour>
    <contour>
      <point x="222" y="700" type="line"/>
      <point x="119" y="700"/>
      <point x="84" y="664"/>
      <point x="84" y="562" type="curve"/>
      <point x="196" y="562" type="line"/>
      <point x="196" y="592"/>
      <point x="214" y="610"/>
      <point x="244" y="610" type="curve" smooth="yes"/>
      <point x="264" y="610" type="line"/>
      <point x="264" y="700" type="line"/>
    </contour>
    <contour>
      <point x="78" y="287" type="line"/>
      <point x="161" y="287"/>
      <point x="196" y="323"/>
      <point x="196" y="395" type="curve"/>
      <point x="84" y="395" type="line"/>
      <point x="84" y="358"/>
      <point x="66" y="340"/>
      <point x="36" y="340" type="curve" smooth="yes"/>
      <point x="16" y="340" type="line"/>
      <point x="16" y="287" type="line"/>
    </contour>
    <contour>
      <point x="84" y="28" type="line"/>
      <point x="196" y="28" type="line"/>
      <point x="196" y="195" type="line"/>
      <point x="84" y="195" type="line"/>
    </contour>
    <contour>
      <point x="222" y="-110" type="curve" smooth="yes"/>
      <point x="264" y="-110" type="line"/>
      <point x="264" y="-20" type="line"/>
      <point x="244" y="-20" type="line" smooth="yes"/>
      <point x="214" y="-20"/>
      <point x="196" y="-2"/>
      <point x="196" y="28" type="curve"/>
      <point x="84" y="28" type="line"/>
      <point x="84" y="-74"/>
      <point x="119" y="-110"/>
    </contour>
    <contour>
      <point x="78" y="303" type="curve" smooth="yes"/>
      <point x="16" y="303" type="line"/>
      <point x="16" y="250" type="line"/>
      <point x="36" y="250" type="line" smooth="yes"/>
      <point x="66" y="250"/>
      <point x="84" y="232"/>
      <point x="84" y="195" type="curve"/>
      <point x="196" y="195" type="line"/>
      <point x="196" y="267"/>
      <point x="161" y="303"/>
    </contour>
  </outline>
</glyph>
<glyph name="bar" format="2">
  <advance width="220"/>
  <unicode hex="007C"/>
  <guideline x="102" y="-40"/>
  <outline>
    <contour>
      <point x="60" y="700" type="line"/>
      <point x="60" y="-40" type="line"/>
      <point x="160" y="-40" type="line"/>
      <point x="160" y="700" type="line"/>
    </contour>
  </outline>
</glyph>
<glyph name="braceright" format="2">
  <advance width="290"/>
  <unicode hex="007D"/>
  <outline>
    <contour>
      <point x="206" y="562" type="line"/>
      <point x="94" y="562" type="line"/>
      <point x="94" y="395" type="line"/>
      <point x="206" y="395" type="line"/>
    </contour>
    <contour>
      <point x="68" y="700" type="curve" smooth="yes"/>
      <point x="26" y="700" type="line"/>
      <point x="26" y="610" type="line"/>
      <point x="46" y="610" type="line" smooth="yes"/>
      <point x="76" y="610"/>
      <point x="94" y="592"/>
      <point x="94" y="562" type="curve"/>
      <point x="206" y="562" type="line"/>
      <point x="206" y="664"/>
      <point x="171" y="700"/>
    </contour>
    <contour>
      <point x="212" y="287" type="curve" smooth="yes"/>
      <point x="274" y="287" type="line"/>
      <point x="274" y="340" type="line"/>
      <point x="254" y="340" type="line" smooth="yes"/>
      <point x="224" y="340"/>
      <point x="206" y="358"/>
      <point x="206" y="395" type="curve"/>
      <point x="94" y="395" type="line"/>
      <point x="94" y="323"/>
      <point x="129" y="287"/>
    </contour>
    <contour>
      <point x="206" y="28" type="line"/>
      <point x="206" y="195" type="line"/>
      <point x="94" y="195" type="line"/>
      <point x="94" y="28" type="line"/>
    </contour>
    <contour>
      <point x="68" y="-110" type="line"/>
      <point x="171" y="-110"/>
      <point x="206" y="-74"/>
      <point x="206" y="28" type="curve"/>
      <point x="94" y="28" type="line"/>
      <point x="94" y="-2"/>
      <point x="76" y="-20"/>
      <point x="46" y="-20" type="curve" smooth="yes"/>
      <point x="26" y="-20" type="line"/>
      <point x="26" y="-110" type="line"/>
    </contour>
    <contour>
      <point x="212" y="303" type="line"/>
      <point x="129" y="303"/>
      <point x="94" y="267"/>
      <point x="94" y="195" type="curve"/>
      <point x="206" y="195" type="line"/>
      <point x="206" y="232"/>
      <point x="224" y="250"/>
      <point x="254" y="250" type="curve" smooth="yes"/>
      <point x="274" y="250" type="line"/>
      <point x="274" y="303" type="line"/>
    </contour>
  </outline>
</glyph>
<glyph name="asciitilde" format="2">
  <advance width="534"/>
  <unicode hex="007E"/>
  <outline>
    <contour>
      <point x="30" y="379" type="curve" smooth="yes"/>
      <point x="30" y="210" type="line"/>
      <point x="120" y="210" type="line"/>
      <point x="120" y="353" type="line" smooth="yes"/>
      <point x="120" y="400"/>
      <point x="145" y="409"/>
      <point x="165" y="409" type="curve" smooth="yes"/>
      <point x="188" y="409"/>
      <point x="197" y="399"/>
      <point x="211" y="361" type="curve" smooth="yes"/>
      <point x="254" y="247" type="line" smooth="yes"/>
      <point x="272" y="201"/>
      <point x="322" y="181"/>
      <point x="377" y="181" type="curve" smooth="yes"/>
      <point x="459" y="181"/>
      <point x="504" y="230"/>
      <point x="504" y="301" type="curve" smooth="yes"/>
      <point x="504" y="470" type="line"/>
      <point x="414" y="470" type="line"/>
      <point x="414" y="327" type="line" smooth="yes"/>
      <point x="414" y="280"/>
      <point x="389" y="271"/>
      <point x="369" y="271" type="curve" smooth="yes"/>
      <point x="346" y="271"/>
      <point x="337" y="281"/>
      <point x="323" y="319" type="curve" smooth="yes"/>
      <point x="280" y="433" type="line" smooth="yes"/>
      <point x="262" y="479"/>
      <point x="212" y="499"/>
      <point x="157" y="499" type="curve" smooth="yes"/>
      <point x="75" y="499"/>
      <point x="30" y="450"/>
    </contour>
  </outline>
</glyph>
<glyph name="degree" format="2">
  <advance width="312"/>
  <unicode hex="00B0"/>
  <outline>
    <contour>
      <point x="156" y="430" type="curve" smooth="yes"/>
      <point x="233" y="430"/>
      <point x="296" y="493"/>
      <point x="296" y="570" type="curve" smooth="yes"/>
      <point x="296" y="647"/>
      <point x="233" y="710"/>
      <point x="156" y="710" type="curve" smooth="yes"/>
      <point x="79" y="710"/>
      <point x="16" y="647"/>
      <point x="16" y="570" type="curve" smooth="yes"/>
      <point x="16" y="493"/>
      <point x="79" y="430"/>
    </contour>
    <contour>
      <point x="156" y="512" type="curve" smooth="yes"/>
      <point x="124" y="512"/>
      <point x="98" y="538"/>
      <point x="98" y="570" type="curve" smooth="yes"/>
      <point x="98" y="602"/>
      <point x="124" y="628"/>
      <point x="156" y="628" type="curve" smooth="yes"/>
      <point x="188" y="628"/>
      <point x="214" y="602"/>
      <point x="214" y="570" type="curve" smooth="yes"/>
      <point x="214" y="538"/>
      <point x="188" y="512"/>
    </contour>
  </outline>
</glyph>
<glyph name="paragraph" format="2">
  <advance width="636"/>
  <unicode hex="00B6"/>
  <outline>
    <contour>
      <point x="376" y="-40" type="line"/>
      <point x="376" y="700" type="line"/>
      <point x="256" y="700" type="line"/>
      <point x="256" y="-40" type="line"/>
    </contour>
    <contour>
      <point x="351" y="350" type="line"/>
      <point x="351" y="430" type="line"/>
      <point x="236" y="430" type="line"/>
      <point x="236" y="350" type="line"/>
    </contour>
    <contour>
      <point x="236" y="350" type="curve"/>
      <point x="236" y="430" type="line"/>
      <point x="187" y="430"/>
      <point x="156" y="445"/>
      <point x="156" y="492" type="curve"/>
      <point x="36" y="492" type="line"/>
      <point x="36" y="398"/>
      <point x="87" y="350"/>
    </contour>
    <contour>
      <point x="156" y="492" type="line"/>
      <point x="156" y="558" type="line"/>
      <point x="36" y="558" type="line"/>
      <point x="36" y="492" type="line"/>
    </contour>
    <contour>
      <point x="351" y="620" type="line"/>
      <point x="351" y="700" type="line"/>
      <point x="236" y="700" type="line"/>
      <point x="236" y="620" type="line"/>
    </contour>
    <contour>
      <point x="36" y="558" type="curve"/>
      <point x="156" y="558" type="line"/>
      <point x="156" y="605"/>
      <point x="187" y="620"/>
      <point x="236" y="620" type="curve"/>
      <point x="236" y="700" type="line"/>
      <point x="87" y="700"/>
      <point x="36" y="652"/>
    </contour>
    <contour>
      <point x="576" y="-40" type="line"/>
      <point x="576" y="700" type="line"/>
      <point x="456" y="700" type="line"/>
      <point x="456" y="-40" type="line"/>
    </contour>
  </outline>
</glyph>
<glyph name="questiondown" format="2">
  <advance width="454"/>
  <unicode hex="00BF"/>
  <outline>
    <contour>
      <point x="300" y="590" type="line"/>
      <point x="180" y="590" type="line"/>
      <point x="180" y="470" type="line"/>
      <point x="300" y="470" type="line"/>
    </contour>
    <contour>
      <point x="146" y="22" type="curve"/>
      <point x="26" y="22" type="line"/>
      <point x="26" y="-72"/>
      <point x="77" y="-120"/>
      <point x="227" y="-120" type="curve"/>
      <point x="227" y="-40" type="line"/>
      <point x="177" y="-40"/>
      <point x="146" y="-25"/>
    </contour>
    <contour>
      <point x="428" y="22" type="curve"/>
      <point x="308" y="22" type="line"/>
      <point x="308" y="-25"/>
      <point x="277" y="-40"/>
      <point x="227" y="-40" type="curve"/>
      <point x="227" y="-120" type="line"/>
      <point x="377" y="-120"/>
      <point x="428" y="-72"/>
    </contour>
    <contour>
      <point x="428" y="120" type="line"/>
      <point x="308" y="120" type="line"/>
      <point x="308" y="22" type="line"/>
      <point x="428" y="22" type="line"/>
    </contour>
    <contour>
      <point x="181" y="135" type="curve" smooth="yes"/>
      <point x="195" y="143" type="line" smooth="yes"/>
      <point x="289" y="196"/>
      <point x="300" y="227"/>
      <point x="300" y="322" type="curve" smooth="yes"/>
      <point x="300" y="410" type="line"/>
      <point x="180" y="410" type="line"/>
      <point x="180" y="322" type="line" smooth="yes"/>
      <point x="180" y="265"/>
      <point x="172" y="254"/>
      <point x="146" y="240" type="curve" smooth="yes"/>
      <point x="135" y="234" type="line" smooth="yes"/>
      <point x="37" y="180"/>
      <point x="26" y="140"/>
      <point x="26" y="56" type="curve" smooth="yes"/>
      <point x="26" y="22" type="line"/>
      <point x="146" y="22" type="line"/>
      <point x="146" y="56" type="line" smooth="yes"/>
      <point x="146" y="94"/>
      <point x="150" y="117"/>
    </contour>
  </outline>
</glyph>
<glyph name="AE" format="2">
  <advance width="620"/>
  <unicode hex="00C6"/>
  <outline>
    <contour>
      <point x="124" y="98" type="line"/>
      <point x="381" y="98" type="line"/>
      <point x="381" y="188" type="line"/>
      <point x="124" y="188" type="line"/>
    </contour>
    <contour>
      <point x="20" y="0" type="line"/>
      <point x="126" y="0" type="line"/>
      <point x="312" y="700" type="line"/>
      <point x="206" y="700" type="line"/>
    </contour>
    <contour>
      <point x="290" y="0" type="line"/>
      <point x="410" y="0" type="line"/>
      <point x="410" y="700" type="line"/>
      <point x="290" y="700" type="line"/>
    </contour>
    <contour>
      <point x="338" y="0" type="line"/>
      <point x="584" y="0" type="line"/>
      <point x="584" y="90" type="line"/>
      <point x="338" y="90" type="line"/>
    </contour>
    <contour>
      <point x="338" y="380" type="line"/>
      <point x="544" y="380" type="line"/>
      <point x="544" y="470" type="line"/>
      <point x="338" y="470" type="line"/>
    </contour>
    <contour>
      <point x="338" y="610" type="line"/>
      <point x="584" y="610" type="line"/>
      <point x="584" y="700" type="line"/>
      <point x="338" y="700" type="line"/>
    </contour>
  </outline>
</glyph>
<glyph name="Eth" format="2">
  <advance width="514"/>
  <unicode hex="00D0"/>
  <outline>
    <component base="D" xOffset="6"/>
    <contour>
      <point x="16" y="330" type="line"/>
      <point x="278" y="330" type="line"/>
      <point x="278" y="420" type="line"/>
      <point x="16" y="420" type="line"/>
    </contour>
  </outline>
</glyph>
<glyph name="multiply" format="2">
  <advance width="314"/>
  <unicode hex="00D7"/>
  <outline>
    <contour>
      <point x="21" y="406" type="line"/>
      <point x="233" y="194" type="line"/>
      <point x="294" y="255" type="line"/>
      <point x="82" y="467" type="line"/>
    </contour>
    <contour>
      <point x="232" y="467" type="line"/>
      <point x="20" y="255" type="line"/>
      <point x="80" y="194" type="line"/>
      <point x="292" y="406" type="line"/>
    </contour>
  </outline>
</glyph>
<glyph name="Oslash" format="2">
  <advance width="532"/>
  <unicode hex="00D8"/>
  <outline>
    <contour>
      <point x="266" y="-10" type="curve" smooth="yes"/>
      <point x="426" y="-10"/>
      <point x="482" y="38"/>
      <point x="482" y="132" type="curve" smooth="yes"/>
      <point x="482" y="568" type="line" smooth="yes"/>
      <point x="482" y="662"/>
      <point x="426" y="710"/>
      <point x="266" y="710" type="curve" smooth="yes"/>
      <point x="102" y="710"/>
      <point x="50" y="662"/>
      <point x="50" y="569" type="curve" smooth="yes"/>
      <point x="50" y="132" type="line" smooth="yes"/>
      <point x="50" y="38"/>
      <point x="101" y="-10"/>
    </contour>
    <contour>
      <point x="266" y="70" type="curve" smooth="yes"/>
      <point x="201" y="70"/>
      <point x="170" y="85"/>
      <point x="170" y="132" type="curve" smooth="yes"/>
      <point x="170" y="568" type="line" smooth="yes"/>
      <point x="170" y="615"/>
      <point x="201" y="630"/>
      <point x="266" y="630" type="curve" smooth="yes"/>
      <point x="331" y="630"/>
      <point x="362" y="615"/>
      <point x="362" y="568" type="curve" smooth="yes"/>
      <point x="362" y="132" type="line" smooth="yes"/>
      <point x="362" y="85"/>
      <point x="331" y="70"/>
    </contour>
    <contour>
      <point x="197" y="-41" type="line"/>
      <point x="261" y="-46" type="line"/>
      <point x="330" y="739" type="line"/>
      <point x="266" y="744" type="line"/>
    </contour>
  </outline>
</glyph>
<glyph name="Thorn" format="2">
  <advance width="482"/>
  <unicode hex="00DE"/>
  <outline>
    <contour>
      <point x="60" y="0" type="line"/>
      <point x="180" y="0" type="line"/>
      <point x="180" y="700" type="line"/>
      <point x="60" y="700" type="line"/>
    </contour>
    <contour>
      <point x="136" y="160" type="line"/>
      <point x="251" y="160" type="line"/>
      <point x="251" y="240" type="line"/>
      <point x="136" y="240" type="line"/>
    </contour>
    <contour>
      <point x="251" y="240" type="curve"/>
      <point x="251" y="160" type="line"/>
      <point x="401" y="160"/>
      <point x="452" y="208"/>
      <point x="452" y="302" type="curve"/>
      <point x="332" y="302" type="line"/>
      <point x="332" y="255"/>
      <point x="301" y="240"/>
    </contour>
    <contour>
      <point x="332" y="302" type="line"/>
      <point x="452" y="302" type="line"/>
      <point x="452" y="468" type="line"/>
      <point x="332" y="468" type="line"/>
    </contour>
    <contour>
      <point x="136" y="530" type="line"/>
      <point x="251" y="530" type="line"/>
      <point x="251" y="610" type="line"/>
      <point x="136" y="610" type="line"/>
    </contour>
    <contour>
      <point x="332" y="468" type="curve"/>
      <point x="452" y="468" type="line"/>
      <point x="452" y="562"/>
      <point x="401" y="610"/>
      <point x="251" y="610" type="curve"/>
      <point x="251" y="530" type="line"/>
      <point x="301" y="530"/>
      <point x="332" y="515"/>
    </contour>
  </outline>
</glyph>
<glyph name="germandbls" format="2">
  <advance width="482"/>
  <unicode hex="00DF"/>
  <guideline x="332" y="630"/>
  <outline>
    <contour>
      <point x="76" y="0" type="line"/>
      <point x="188" y="0" type="line"/>
      <point x="188" y="535" type="line"/>
      <point x="76" y="535" type="line"/>
    </contour>
    <contour>
      <point x="16" y="380" type="line"/>
      <point x="188" y="380" type="line"/>
      <point x="188" y="470" type="line"/>
      <point x="16" y="470" type="line"/>
    </contour>
    <contour>
      <point x="76" y="535" type="curve"/>
      <point x="188" y="535" type="line"/>
      <point x="188" y="599"/>
      <point x="208" y="630"/>
      <point x="247" y="630" type="curve" smooth="yes"/>
      <point x="277" y="630"/>
      <point x="299" y="605"/>
      <point x="299" y="555" type="curve" smooth="yes"/>
      <point x="299" y="511"/>
      <point x="277" y="470"/>
      <point x="248" y="470" type="curve"/>
      <point x="248" y="390" type="line"/>
      <point x="336" y="390"/>
      <point x="409" y="436"/>
      <point x="409" y="555" type="curve" smooth="yes"/>
      <point x="409" y="686"/>
      <point x="321" y="720"/>
      <point x="235" y="720" type="curve" smooth="yes"/>
      <point x="155" y="720"/>
      <point x="76" y="694"/>
    </contour>
    <contour>
      <point x="248" y="470" type="curve"/>
      <point x="248" y="390" type="line"/>
      <point x="292" y="390"/>
      <point x="338" y="352"/>
      <point x="338" y="245" type="curve" smooth="yes"/>
      <point x="338" y="140"/>
      <point x="294" y="124"/>
      <point x="248" y="124" type="curve"/>
      <point x="248" y="0" type="line"/>
      <point x="387" y="0"/>
      <point x="458" y="91"/>
      <point x="458" y="245" type="curve" smooth="yes"/>
      <point x="458" y="419"/>
      <point x="365" y="470"/>
    </contour>
  </outline>
</glyph>
<glyph name="ae" format="2">
  <advance width="677"/>
  <unicode hex="00E6"/>
  <anchor x="339" y="0" name="bottom"/>
  <anchor x="339" y="470" name="top"/>
  <outline>
    <contour>
      <point x="161" y="-10" type="curve" smooth="yes"/>
      <point x="247" y="-10"/>
      <point x="339" y="37"/>
      <point x="339" y="120" type="curve"/>
      <point x="275" y="120" type="line"/>
      <point x="275" y="70" type="line"/>
      <point x="367" y="70" type="line"/>
      <point x="367" y="350" type="line" smooth="yes"/>
      <point x="367" y="442"/>
      <point x="321" y="480"/>
      <point x="219" y="480" type="curve" smooth="yes"/>
      <point x="88" y="480"/>
      <point x="30" y="407"/>
      <point x="30" y="300" type="curve"/>
      <point x="150" y="300" type="line"/>
      <point x="150" y="376"/>
      <point x="180" y="400"/>
      <point x="219" y="400" type="curve" smooth="yes"/>
      <point x="253" y="400"/>
      <point x="275" y="381"/>
      <point x="275" y="346" type="curve" smooth="yes"/>
      <point x="275" y="228"/>
      <point x="30" y="302"/>
      <point x="30" y="120" type="curve" smooth="yes"/>
      <point x="30" y="39"/>
      <point x="80" y="-10"/>
    </contour>
    <contour>
      <point x="196" y="72" type="curve" smooth="yes"/>
      <point x="171" y="72"/>
      <point x="150" y="94"/>
      <point x="150" y="124" type="curve" smooth="yes"/>
      <point x="150" y="160"/>
      <point x="170" y="175"/>
      <point x="203" y="188" type="curve" smooth="yes"/>
      <point x="241" y="203"/>
      <point x="294" y="220"/>
      <point x="294" y="269" type="curve"/>
      <point x="275" y="269" type="line"/>
      <point x="275" y="181" type="line" smooth="yes"/>
      <point x="275" y="103"/>
      <point x="238" y="72"/>
    </contour>
    <contour>
      <point x="465" y="-10" type="curve"/>
      <point x="465" y="70" type="line"/>
      <point x="420" y="70"/>
      <point x="388" y="127"/>
      <point x="388" y="235" type="curve" smooth="yes"/>
      <point x="388" y="346"/>
      <point x="422" y="400"/>
      <point x="465" y="400" type="curve"/>
      <point x="465" y="480" type="line"/>
      <point x="352" y="480"/>
      <point x="274" y="412"/>
      <point x="274" y="235" type="curve" smooth="yes"/>
      <point x="274" y="81"/>
      <point x="331" y="-10"/>
    </contour>
    <contour>
      <point x="337" y="235" type="line"/>
      <point x="638" y="235" type="line"/>
      <point x="638" y="300" type="line"/>
      <point x="337" y="300" type="line"/>
    </contour>
    <contour>
      <point x="465" y="70" type="curve"/>
      <point x="465" y="-10" type="line"/>
      <point x="588" y="-10"/>
      <point x="652" y="70"/>
      <point x="652" y="177" type="curve"/>
      <point x="528" y="177" type="line"/>
      <point x="528" y="101"/>
      <point x="495" y="70"/>
    </contour>
    <contour>
      <point x="527" y="235" type="curve"/>
      <point x="653" y="235" type="line"/>
      <point x="653" y="427"/>
      <point x="563" y="480"/>
      <point x="465" y="480" type="curve"/>
      <point x="465" y="400" type="line"/>
      <point x="500" y="400"/>
      <point x="527" y="358"/>
    </contour>
  </outline>
</glyph>
<glyph name="eth" format="2">
  <advance width="446"/>
  <unicode hex="00F0"/>
  <outline>
    <contour>
      <point x="357" y="235" type="curve"/>
      <point x="422" y="235" type="line"/>
      <point x="422" y="436"/>
      <point x="368" y="581"/>
      <point x="268" y="700" type="curve"/>
      <point x="146" y="700" type="line"/>
      <point x="281" y="543"/>
      <point x="357" y="393"/>
    </contour>
    <contour>
      <point x="223" y="-10" type="curve" smooth="yes"/>
      <point x="357" y="-10"/>
      <point x="422" y="81"/>
      <point x="422" y="235" type="curve"/>
      <point x="298" y="235" type="line"/>
      <point x="298" y="127"/>
      <point x="268" y="70"/>
      <point x="223" y="70" type="curve" smooth="yes"/>
      <point x="178" y="70"/>
      <point x="148" y="127"/>
      <point x="148" y="235" type="curve"/>
      <point x="24" y="235" type="line"/>
      <point x="24" y="81"/>
      <point x="89" y="-10"/>
    </contour>
    <contour>
      <point x="24" y="235" type="curve"/>
      <point x="148" y="235" type="line"/>
      <point x="148" y="346"/>
      <point x="180" y="400"/>
      <point x="223" y="400" type="curve" smooth="yes"/>
      <point x="266" y="400"/>
      <point x="298" y="346"/>
      <point x="298" y="235" type="curve"/>
      <point x="372" y="235" type="line"/>
      <point x="372" y="412"/>
      <point x="335" y="480"/>
      <point x="223" y="480" type="curve" smooth="yes"/>
      <point x="111" y="480"/>
      <point x="24" y="412"/>
    </contour>
    <contour>
      <point x="104" y="495" type="line"/>
      <point x="406" y="610" type="line"/>
      <point x="406" y="685" type="line"/>
      <point x="104" y="570" type="line"/>
    </contour>
  </outline>
</glyph>
<glyph name="divide" format="2">
  <advance width="340"/>
  <unicode hex="00F7"/>
  <outline>
    <contour>
      <point x="125" y="530" type="line"/>
      <point x="125" y="430" type="line"/>
      <point x="215" y="430" type="line"/>
      <point x="215" y="530" type="line"/>
    </contour>
    <contour>
      <point x="320" y="375" type="line"/>
      <point x="20" y="375" type="line"/>
      <point x="20" y="285" type="line"/>
      <point x="320" y="285" type="line"/>
    </contour>
    <contour>
      <point x="125" y="230" type="line"/>
      <point x="125" y="130" type="line"/>
      <point x="215" y="130" type="line"/>
      <point x="215" y="230" type="line"/>
    </contour>
  </outline>
</glyph>
<glyph name="oslash" format="2">
  <advance width="446"/>
  <unicode hex="00F8"/>
  <outline>
    <contour>
      <point x="223" y="480" type="curve" smooth="yes"/>
      <point x="111" y="480"/>
      <point x="24" y="412"/>
      <point x="24" y="235" type="curve" smooth="yes"/>
      <point x="24" y="81"/>
      <point x="89" y="-10"/>
      <point x="223" y="-10" type="curve" smooth="yes"/>
      <point x="357" y="-10"/>
      <point x="422" y="81"/>
      <point x="422" y="235" type="curve" smooth="yes"/>
      <point x="422" y="412"/>
      <point x="335" y="480"/>
    </contour>
    <contour>
      <point x="138" y="235" type="curve" smooth="yes"/>
      <point x="138" y="346"/>
      <point x="170" y="400"/>
      <point x="223" y="400" type="curve" smooth="yes"/>
      <point x="276" y="400"/>
      <point x="308" y="346"/>
      <point x="308" y="235" type="curve" smooth="yes"/>
      <point x="308" y="127"/>
      <point x="278" y="70"/>
      <point x="223" y="70" type="curve" smooth="yes"/>
      <point x="168" y="70"/>
      <point x="138" y="127"/>
    </contour>
    <contour>
      <point x="130" y="-48" type="line"/>
      <point x="371" y="493" type="line"/>
      <point x="316" y="517" type="line"/>
      <point x="75" y="-23" type="line"/>
    </contour>
  </outline>
</glyph>
<glyph name="Aogonek" format="2">
  <advance width="468"/>
  <unicode hex="0104"/>
  <outline>
    <contour>
      <point x="328" y="0" type="line"/>
      <point x="448" y="0" type="line"/>
      <point x="332" y="700" type="line"/>
      <point x="212" y="700" type="line"/>
    </contour>
    <contour>
      <point x="86" y="98" type="line"/>
      <point x="343" y="98" type="line"/>
      <point x="343" y="188" type="line"/>
      <point x="86" y="188" type="line"/>
    </contour>
    <contour>
      <point x="20" y="0" type="line"/>
      <point x="120" y="0" type="line"/>
      <point x="236" y="700" type="line"/>
      <point x="136" y="700" type="line"/>
    </contour>
    <contour>
      <point x="407" y="-240" type="curve" smooth="yes"/>
      <point x="499" y="-240" type="line"/>
      <point x="499" y="-150" type="line"/>
      <point x="431" y="-150" type="line" smooth="yes"/>
      <point x="413" y="-150"/>
      <point x="409" y="-140"/>
      <point x="414" y="-123" type="curve" smooth="yes"/>
      <point x="448" y="0" type="line"/>
      <point x="401" y="81" type="line"/>
      <point x="340" y="-135" type="line" smooth="yes"/>
      <point x="335" y="-153"/>
      <point x="332" y="-168"/>
      <point x="332" y="-182" type="curve" smooth="yes"/>
      <point x="332" y="-221"/>
      <point x="355" y="-240"/>
    </contour>
  </outline>
</glyph>
<glyph name="aogonek" format="2">
  <advance width="443"/>
  <unicode hex="0105"/>
  <outline>
    <contour>
      <point x="30" y="120" type="curve" smooth="yes"/>
      <point x="30" y="39"/>
      <point x="80" y="-10"/>
      <point x="161" y="-10" type="curve" smooth="yes"/>
      <point x="247" y="-10"/>
      <point x="299" y="37"/>
      <point x="299" y="120" type="curve"/>
      <point x="285" y="120" type="line"/>
      <point x="285" y="0" type="line"/>
      <point x="397" y="0" type="line"/>
      <point x="397" y="350" type="line" smooth="yes"/>
      <point x="397" y="442"/>
      <point x="331" y="480"/>
      <point x="229" y="480" type="curve" smooth="yes"/>
      <point x="88" y="480"/>
      <point x="30" y="407"/>
      <point x="30" y="300" type="curve"/>
      <point x="150" y="300" type="line"/>
      <point x="150" y="376"/>
      <point x="190" y="400"/>
      <point x="229" y="400" type="curve" smooth="yes"/>
      <point x="263" y="400"/>
      <point x="285" y="381"/>
      <point x="285" y="346" type="curve" smooth="yes"/>
      <point x="285" y="228"/>
      <point x="30" y="302"/>
    </contour>
    <contour>
      <point x="206" y="72" type="curve" smooth="yes"/>
      <point x="171" y="72"/>
      <point x="150" y="94"/>
      <point x="150" y="124" type="curve" smooth="yes"/>
      <point x="150" y="160"/>
      <point x="180" y="175"/>
      <point x="213" y="188" type="curve" smooth="yes"/>
      <point x="250" y="203"/>
      <point x="304" y="220"/>
      <point x="304" y="269" type="curve"/>
      <point x="285" y="269" type="line"/>
      <point x="285" y="181" type="line" smooth="yes"/>
      <point x="285" y="103"/>
      <point x="248" y="72"/>
    </contour>
    <contour>
      <point x="356" y="-240" type="curve" smooth="yes"/>
      <point x="428" y="-240" type="line"/>
      <point x="428" y="-150" type="line"/>
      <point x="380" y="-150" type="line" smooth="yes"/>
      <point x="362" y="-150"/>
      <point x="358" y="-140"/>
      <point x="363" y="-123" type="curve" smooth="yes"/>
      <point x="397" y="0" type="line"/>
      <point x="338" y="38" type="line"/>
      <point x="289" y="-135" type="line" smooth="yes"/>
      <point x="284" y="-153"/>
      <point x="281" y="-168"/>
      <point x="281" y="-182" type="curve" smooth="yes"/>
      <point x="281" y="-221"/>
      <point x="304" y="-240"/>
    </contour>
  </outline>
</glyph>
<glyph name="dcroat" format="2">
  <advance width="452"/>
  <unicode hex="0111"/>
  <outline>
    <component base="d" identifier="AC8C2684"/>
    <contour>
      <point x="146" y="560" type="line"/>
      <point x="446" y="560" type="line"/>
      <point x="446" y="620" type="line"/>
      <point x="146" y="620" type="line"/>
    </contour>
  </outline>
</glyph>
<glyph name="Eogonek" format="2">
  <advance width="421"/>
  <unicode hex="0118"/>
  <outline>
    <contour>
      <point x="60" y="0" type="line"/>
      <point x="180" y="0" type="line"/>
      <point x="180" y="700" type="line"/>
      <point x="60" y="700" type="line"/>
    </contour>
    <contour>
      <point x="128" y="0" type="line"/>
      <point x="385" y="0" type="line"/>
      <point x="385" y="90" type="line"/>
      <point x="128" y="90" type="line"/>
    </contour>
    <contour>
      <point x="128" y="380" type="line"/>
      <point x="345" y="380" type="line"/>
      <point x="345" y="470" type="line"/>
      <point x="128" y="470" type="line"/>
    </contour>
    <contour>
      <point x="128" y="610" type="line"/>
      <point x="385" y="610" type="line"/>
      <point x="385" y="700" type="line"/>
      <point x="128" y="700" type="line"/>
    </contour>
    <contour>
      <point x="344" y="-240" type="curve" smooth="yes"/>
      <point x="436" y="-240" type="line"/>
      <point x="436" y="-150" type="line"/>
      <point x="368" y="-150" type="line" smooth="yes"/>
      <point x="350" y="-150"/>
      <point x="346" y="-140"/>
      <point x="351" y="-123" type="curve" smooth="yes"/>
      <point x="385" y="0" type="line"/>
      <point x="338" y="81" type="line"/>
      <point x="277" y="-135" type="line" smooth="yes"/>
      <point x="272" y="-153"/>
      <point x="269" y="-168"/>
      <point x="269" y="-182" type="curve" smooth="yes"/>
      <point x="269" y="-221"/>
      <point x="292" y="-240"/>
    </contour>
  </outline>
</glyph>
<glyph name="eogonek" format="2">
  <advance width="443"/>
  <unicode hex="0119"/>
  <outline>
    <contour>
      <point x="228" y="-10" type="curve"/>
      <point x="228" y="70" type="line"/>
      <point x="183" y="70"/>
      <point x="148" y="127"/>
      <point x="148" y="235" type="curve" smooth="yes"/>
      <point x="148" y="346"/>
      <point x="185" y="400"/>
      <point x="228" y="400" type="curve"/>
      <point x="228" y="480" type="line"/>
      <point x="115" y="480"/>
      <point x="24" y="412"/>
      <point x="24" y="235" type="curve" smooth="yes"/>
      <point x="24" y="81"/>
      <point x="94" y="-10"/>
    </contour>
    <contour>
      <point x="87" y="235" type="line"/>
      <point x="404" y="235" type="line"/>
      <point x="404" y="300" type="line"/>
      <point x="87" y="300" type="line"/>
    </contour>
    <contour>
      <point x="228" y="70" type="curve"/>
      <point x="228" y="-10" type="line"/>
      <point x="354" y="-10"/>
      <point x="418" y="70"/>
      <point x="418" y="177" type="curve"/>
      <point x="294" y="177" type="line"/>
      <point x="294" y="101"/>
      <point x="261" y="70"/>
    </contour>
    <contour>
      <point x="293" y="235" type="curve"/>
      <point x="419" y="235" type="line"/>
      <point x="419" y="427"/>
      <point x="329" y="480"/>
      <point x="228" y="480" type="curve"/>
      <point x="228" y="400" type="line"/>
      <point x="266" y="400"/>
      <point x="293" y="358"/>
    </contour>
    <contour>
      <point x="337" y="-240" type="curve" smooth="yes"/>
      <point x="409" y="-240" type="line"/>
      <point x="409" y="-150" type="line"/>
      <point x="361" y="-150" type="line" smooth="yes"/>
      <point x="343" y="-150"/>
      <point x="339" y="-140"/>
      <point x="344" y="-123" type="curve" smooth="yes"/>
      <point x="411" y="118" type="line"/>
      <point x="343" y="124" type="line"/>
      <point x="270" y="-135" type="line" smooth="yes"/>
      <point x="265" y="-153"/>
      <point x="262" y="-168"/>
      <point x="262" y="-182" type="curve" smooth="yes"/>
      <point x="262" y="-221"/>
      <point x="285" y="-240"/>
    </contour>
  </outline>
</glyph>
<glyph name="Hbar" format="2">
  <advance width="512"/>
  <unicode hex="0126"/>
  <outline>
    <contour>
      <point x="336" y="0" type="line"/>
      <point x="456" y="0" type="line"/>
      <point x="456" y="700" type="line"/>
      <point x="336" y="700" type="line"/>
    </contour>
    <contour>
      <point x="56" y="0" type="line"/>
      <point x="176" y="0" type="line"/>
      <point x="176" y="700" type="line"/>
      <point x="56" y="700" type="line"/>
    </contour>
    <contour>
      <point x="124" y="380" type="line"/>
      <point x="381" y="380" type="line"/>
      <point x="381" y="470" type="line"/>
      <point x="124" y="470" type="line"/>
    </contour>
    <contour>
      <point x="16" y="560" type="line"/>
      <point x="496" y="560" type="line"/>
      <point x="496" y="620" type="line"/>
      <point x="16" y="620" type="line"/>
    </contour>
  </outline>
</glyph>
<glyph name="hbar" format="2">
  <advance width="452"/>
  <unicode hex="0127"/>
  <outline>
    <component base="h" identifier="75C2DCD3"/>
    <contour>
      <point x="6" y="560" type="line"/>
      <point x="306" y="560" type="line"/>
      <point x="306" y="620" type="line"/>
      <point x="6" y="620" type="line"/>
    </contour>
  </outline>
</glyph>
<glyph name="Iogonek" format="2">
  <advance width="252"/>
  <unicode hex="012E"/>
  <outline>
    <contour>
      <point x="66" y="0" type="line"/>
      <point x="186" y="0" type="line"/>
      <point x="186" y="700" type="line"/>
      <point x="66" y="700" type="line"/>
    </contour>
    <contour>
      <point x="145" y="-240" type="curve" smooth="yes"/>
      <point x="237" y="-240" type="line"/>
      <point x="237" y="-150" type="line"/>
      <point x="169" y="-150" type="line" smooth="yes"/>
      <point x="151" y="-150"/>
      <point x="147" y="-140"/>
      <point x="152" y="-123" type="curve" smooth="yes"/>
      <point x="186" y="0" type="line"/>
      <point x="139" y="81" type="line"/>
      <point x="78" y="-135" type="line" smooth="yes"/>
      <point x="73" y="-153"/>
      <point x="70" y="-168"/>
      <point x="70" y="-182" type="curve" smooth="yes"/>
      <point x="70" y="-221"/>
      <point x="93" y="-240"/>
    </contour>
  </outline>
</glyph>
<glyph name="iogonek" format="2">
  <advance width="224"/>
  <unicode hex="012F"/>
  <outline>
    <contour>
      <point x="56" y="0" type="line"/>
      <point x="168" y="0" type="line"/>
      <point x="168" y="470" type="line"/>
      <point x="56" y="470" type="line"/>
    </contour>
    <contour>
      <point x="56" y="530" type="line"/>
      <point x="168" y="530" type="line"/>
      <point x="168" y="650" type="line"/>
      <point x="56" y="650" type="line"/>
    </contour>
    <contour>
      <point x="127" y="-240" type="curve" smooth="yes"/>
      <point x="199" y="-240" type="line"/>
      <point x="199" y="-150" type="line"/>
      <point x="151" y="-150" type="line" smooth="yes"/>
      <point x="133" y="-150"/>
      <point x="129" y="-140"/>
      <point x="134" y="-123" type="curve" smooth="yes"/>
      <point x="168" y="0" type="line"/>
      <point x="109" y="38" type="line"/>
      <point x="60" y="-135" type="line" smooth="yes"/>
      <point x="55" y="-153"/>
      <point x="52" y="-168"/>
      <point x="52" y="-182" type="curve" smooth="yes"/>
      <point x="52" y="-221"/>
      <point x="75" y="-240"/>
    </contour>
  </outline>
</glyph>
<glyph name="dotlessi" format="2">
  <advance width="224"/>
  <unicode hex="0131"/>
  <anchor x="112" y="0" name="bottom"/>
  <anchor x="168" y="0" name="ogonek"/>
  <anchor x="112" y="470" name="top"/>
  <outline>
    <contour>
      <point x="56" y="0" type="line"/>
      <point x="168" y="0" type="line"/>
      <point x="168" y="470" type="line"/>
      <point x="56" y="470" type="line"/>
    </contour>
  </outline>
</glyph>
<glyph name="Lslash" format="2">
  <advance width="360"/>
  <unicode hex="0141"/>
  <outline>
    <component base="L" identifier="46A12232"/>
    <contour>
      <point x="16" y="318" type="line"/>
      <point x="268" y="414" type="line"/>
      <point x="268" y="516" type="line"/>
      <point x="16" y="420" type="line"/>
    </contour>
  </outline>
</glyph>
<glyph name="lslash" format="2">
  <advance width="240"/>
  <unicode hex="0142"/>
  <outline>
    <component base="l" identifier="8EF13D4F"/>
    <contour>
      <point x="224" y="301" type="line"/>
      <point x="224" y="403" type="line"/>
      <point x="6" y="320" type="line"/>
      <point x="6" y="218" type="line"/>
    </contour>
  </outline>
</glyph>
<glyph name="OE" format="2">
  <advance width="623"/>
  <unicode hex="0152"/>
  <outline>
    <contour>
      <point x="313" y="0" type="line"/>
      <point x="587" y="0" type="line"/>
      <point x="587" y="90" type="line"/>
      <point x="313" y="90" type="line"/>
    </contour>
    <contour>
      <point x="340" y="380" type="line"/>
      <point x="547" y="380" type="line"/>
      <point x="547" y="470" type="line"/>
      <point x="340" y="470" type="line"/>
    </contour>
    <contour>
      <point x="313" y="610" type="line"/>
      <point x="587" y="610" type="line"/>
      <point x="587" y="700" type="line"/>
      <point x="313" y="700" type="line"/>
    </contour>
    <contour>
      <point x="241" y="-10" type="curve" smooth="yes"/>
      <point x="381" y="-10"/>
      <point x="432" y="38"/>
      <point x="432" y="132" type="curve" smooth="yes"/>
      <point x="432" y="568" type="line" smooth="yes"/>
      <point x="432" y="662"/>
      <point x="381" y="710"/>
      <point x="241" y="710" type="curve" smooth="yes"/>
      <point x="102" y="710"/>
      <point x="50" y="661"/>
      <point x="50" y="568" type="curve" smooth="yes"/>
      <point x="50" y="132" type="line" smooth="yes"/>
      <point x="50" y="39"/>
      <point x="102" y="-10"/>
    </contour>
    <contour>
      <point x="241" y="70" type="curve" smooth="yes"/>
      <point x="201" y="70"/>
      <point x="170" y="85"/>
      <point x="170" y="132" type="curve" smooth="yes"/>
      <point x="170" y="568" type="line" smooth="yes"/>
      <point x="170" y="615"/>
      <point x="201" y="630"/>
      <point x="241" y="630" type="curve" smooth="yes"/>
      <point x="281" y="630"/>
      <point x="312" y="615"/>
      <point x="312" y="568" type="curve" smooth="yes"/>
      <point x="312" y="132" type="line" smooth="yes"/>
      <point x="312" y="85"/>
      <point x="281" y="70"/>
    </contour>
  </outline>
</glyph>
<glyph name="oe" format="2">
  <advance width="681"/>
  <unicode hex="0153"/>
  <outline>
    <contour>
      <point x="469" y="-10" type="curve"/>
      <point x="469" y="70" type="line"/>
      <point x="424" y="70"/>
      <point x="392" y="127"/>
      <point x="392" y="235" type="curve" smooth="yes"/>
      <point x="392" y="346"/>
      <point x="426" y="400"/>
      <point x="469" y="400" type="curve"/>
      <point x="469" y="480" type="line"/>
      <point x="356" y="480"/>
      <point x="278" y="412"/>
      <point x="278" y="235" type="curve" smooth="yes"/>
      <point x="278" y="81"/>
      <point x="335" y="-10"/>
    </contour>
    <contour>
      <point x="341" y="235" type="line"/>
      <point x="642" y="235" type="line"/>
      <point x="642" y="300" type="line"/>
      <point x="341" y="300" type="line"/>
    </contour>
    <contour>
      <point x="469" y="70" type="curve"/>
      <point x="469" y="-10" type="line"/>
      <point x="592" y="-10"/>
      <point x="656" y="70"/>
      <point x="656" y="177" type="curve"/>
      <point x="532" y="177" type="line"/>
      <point x="532" y="101"/>
      <point x="499" y="70"/>
    </contour>
    <contour>
      <point x="531" y="235" type="curve"/>
      <point x="657" y="235" type="line"/>
      <point x="657" y="427"/>
      <point x="567" y="480"/>
      <point x="469" y="480" type="curve"/>
      <point x="469" y="400" type="line"/>
      <point x="504" y="400"/>
      <point x="531" y="358"/>
    </contour>
    <contour>
      <point x="213" y="400" type="curve"/>
      <point x="213" y="480" type="line"/>
      <point x="111" y="480"/>
      <point x="24" y="412"/>
      <point x="24" y="235" type="curve" smooth="yes"/>
      <point x="24" y="81"/>
      <point x="89" y="-10"/>
      <point x="213" y="-10" type="curve"/>
      <point x="213" y="70" type="line"/>
      <point x="168" y="70"/>
      <point x="148" y="127"/>
      <point x="148" y="235" type="curve" smooth="yes"/>
      <point x="148" y="346"/>
      <point x="170" y="400"/>
    </contour>
    <contour>
      <point x="213" y="480" type="curve"/>
      <point x="213" y="400" type="line"/>
      <point x="256" y="400"/>
      <point x="278" y="346"/>
      <point x="278" y="235" type="curve" smooth="yes"/>
      <point x="278" y="127"/>
      <point x="258" y="70"/>
      <point x="213" y="70" type="curve"/>
      <point x="213" y="-10" type="line"/>
      <point x="337" y="-10"/>
      <point x="382" y="81"/>
      <point x="382" y="235" type="curve" smooth="yes"/>
      <point x="382" y="412"/>
      <point x="315" y="480"/>
    </contour>
  </outline>
</glyph>
<glyph name="Uogonek" format="2">
  <advance width="506"/>
  <unicode hex="0172"/>
  <outline>
    <contour>
      <point x="253" y="-10" type="curve" smooth="yes"/>
      <point x="399" y="-10"/>
      <point x="450" y="38"/>
      <point x="450" y="132" type="curve" smooth="yes"/>
      <point x="450" y="700" type="line"/>
      <point x="330" y="700" type="line"/>
      <point x="330" y="132" type="line" smooth="yes"/>
      <point x="330" y="85"/>
      <point x="299" y="70"/>
      <point x="253" y="70" type="curve" smooth="yes"/>
      <point x="207" y="70"/>
      <point x="176" y="85"/>
      <point x="176" y="132" type="curve" smooth="yes"/>
      <point x="176" y="700" type="line"/>
      <point x="56" y="700" type="line"/>
      <point x="56" y="132" type="line" smooth="yes"/>
      <point x="56" y="38"/>
      <point x="107" y="-10"/>
    </contour>
    <contour>
      <point x="380" y="-240" type="curve" smooth="yes"/>
      <point x="472" y="-240" type="line"/>
      <point x="472" y="-150" type="line"/>
      <point x="404" y="-150" type="line" smooth="yes"/>
      <point x="386" y="-150"/>
      <point x="382" y="-140"/>
      <point x="387" y="-123" type="curve" smooth="yes"/>
      <point x="443" y="81" type="line"/>
      <point x="374" y="81" type="line"/>
      <point x="313" y="-135" type="line" smooth="yes"/>
      <point x="308" y="-153"/>
      <point x="305" y="-168"/>
      <point x="305" y="-182" type="curve" smooth="yes"/>
      <point x="305" y="-221"/>
      <point x="328" y="-240"/>
    </contour>
  </outline>
</glyph>
<glyph name="uogonek" format="2">
  <advance width="452"/>
  <unicode hex="0173"/>
  <outline>
    <contour>
      <point x="158" y="470" type="line"/>
      <point x="46" y="470" type="line"/>
      <point x="46" y="148" type="line" smooth="yes"/>
      <point x="46" y="31"/>
      <point x="120" y="-8"/>
      <point x="195" y="-8" type="curve" smooth="yes"/>
      <point x="271" y="-8"/>
      <point x="305" y="52"/>
      <point x="321" y="108" type="curve"/>
      <point x="305" y="221" type="line"/>
      <point x="294" y="221" type="line"/>
      <point x="294" y="112"/>
      <point x="265" y="72"/>
      <point x="218" y="72" type="curve" smooth="yes"/>
      <point x="189" y="72"/>
      <point x="150" y="97"/>
      <point x="153" y="169" type="curve" smooth="yes"/>
      <point x="158" y="273" type="line"/>
    </contour>
    <contour>
      <point x="406" y="470" type="line"/>
      <point x="294" y="470" type="line"/>
      <point x="294" y="0" type="line"/>
      <point x="406" y="0" type="line"/>
    </contour>
    <contour>
      <point x="365" y="-240" type="curve" smooth="yes"/>
      <point x="437" y="-240" type="line"/>
      <point x="437" y="-150" type="line"/>
      <point x="389" y="-150" type="line" smooth="yes"/>
      <point x="371" y="-150"/>
      <point x="367" y="-140"/>
      <point x="372" y="-123" type="curve" smooth="yes"/>
      <point x="406" y="0" type="line"/>
      <point x="347" y="38" type="line"/>
      <point x="298" y="-135" type="line" smooth="yes"/>
      <point x="293" y="-153"/>
      <point x="290" y="-168"/>
      <point x="290" y="-182" type="curve" smooth="yes"/>
      <point x="290" y="-221"/>
      <point x="313" y="-240"/>
    </contour>
  </outline>
</glyph>
<glyph name="uni018F" format="2">
  <advance width="502"/>
  <unicode hex="018F"/>
  <outline>
    <contour>
      <point x="251" y="-10" type="curve" smooth="yes"/>
      <point x="401" y="-10"/>
      <point x="452" y="38"/>
      <point x="452" y="132" type="curve" smooth="yes"/>
      <point x="452" y="569" type="line" smooth="yes"/>
      <point x="452" y="662"/>
      <point x="400" y="710"/>
      <point x="251" y="710" type="curve" smooth="yes"/>
      <point x="101" y="710"/>
      <point x="50" y="662"/>
      <point x="50" y="568" type="curve" smooth="yes"/>
      <point x="50" y="432" type="line"/>
      <point x="170" y="432" type="line"/>
      <point x="170" y="568" type="line" smooth="yes"/>
      <point x="170" y="615"/>
      <point x="201" y="630"/>
      <point x="251" y="630" type="curve" smooth="yes"/>
      <point x="301" y="630"/>
      <point x="332" y="615"/>
      <point x="332" y="568" type="curve" smooth="yes"/>
      <point x="332" y="132" type="line" smooth="yes"/>
      <point x="332" y="85"/>
      <point x="301" y="70"/>
      <point x="251" y="70" type="curve" smooth="yes"/>
      <point x="201" y="70"/>
      <point x="170" y="85"/>
      <point x="170" y="132" type="curve" smooth="yes"/>
      <point x="170" y="351" type="line"/>
      <point x="50" y="351" type="line"/>
      <point x="50" y="132" type="line" smooth="yes"/>
      <point x="50" y="38"/>
      <point x="101" y="-10"/>
    </contour>
    <contour>
      <point x="130" y="261" type="line"/>
      <point x="347" y="261" type="line"/>
      <point x="347" y="351" type="line"/>
      <point x="130" y="351" type="line"/>
    </contour>
  </outline>
</glyph>
<glyph name="uni0237" format="2">
  <advance width="220"/>
  <unicode hex="0237"/>
  <anchor x="108" y="-240" name="bottom"/>
  <anchor x="108" y="470" name="top"/>
  <outline>
    <contour>
      <point x="52" y="-102" type="line"/>
      <point x="164" y="-102" type="line"/>
      <point x="164" y="470" type="line"/>
      <point x="52" y="470" type="line"/>
    </contour>
    <contour>
      <point x="-36" y="-240" type="line"/>
      <point x="26" y="-240" type="line" smooth="yes"/>
      <point x="129" y="-240"/>
      <point x="164" y="-209"/>
      <point x="164" y="-102" type="curve"/>
      <point x="52" y="-102" type="line"/>
      <point x="52" y="-135"/>
      <point x="41" y="-150"/>
      <point x="16" y="-150" type="curve" smooth="yes"/>
      <point x="-36" y="-150" type="line"/>
    </contour>
  </outline>
</glyph>
<glyph name="uni0259" format="2">
  <advance width="443"/>
  <unicode hex="0259"/>
  <outline>
    <contour>
      <point x="215" y="480" type="curve"/>
      <point x="215" y="400" type="line"/>
      <point x="260" y="400"/>
      <point x="295" y="353"/>
      <point x="295" y="245" type="curve" smooth="yes"/>
      <point x="295" y="124"/>
      <point x="258" y="70"/>
      <point x="215" y="70" type="curve"/>
      <point x="215" y="-10" type="line"/>
      <point x="328" y="-10"/>
      <point x="419" y="58"/>
      <point x="419" y="245" type="curve" smooth="yes"/>
      <point x="419" y="399"/>
      <point x="349" y="480"/>
    </contour>
    <contour>
      <point x="356" y="245" type="line"/>
      <point x="39" y="245" type="line"/>
      <point x="39" y="180" type="line"/>
      <point x="356" y="180" type="line"/>
    </contour>
    <contour>
      <point x="215" y="400" type="curve"/>
      <point x="215" y="480" type="line"/>
      <point x="89" y="480"/>
      <point x="25" y="410"/>
      <point x="25" y="303" type="curve"/>
      <point x="149" y="303" type="line"/>
      <point x="149" y="379"/>
      <point x="182" y="400"/>
    </contour>
    <contour>
      <point x="150" y="245" type="curve"/>
      <point x="24" y="245" type="line"/>
      <point x="24" y="43"/>
      <point x="114" y="-10"/>
      <point x="215" y="-10" type="curve"/>
      <point x="215" y="70" type="line"/>
      <point x="177" y="70"/>
      <point x="150" y="112"/>
    </contour>
  </outline>
</glyph>
<glyph name="gravecomb" format="2">
  <advance width="0"/>
  <unicode hex="0300"/>
  <guideline x="60" y="530"/>
  <anchor x="157" y="470" name="_top"/>
  <anchor x="114" y="770" name="top"/>
  <outline>
    <contour>
      <point x="117" y="530" type="line"/>
      <point x="207" y="530" type="line"/>
      <point x="110" y="770" type="line"/>
      <point x="20" y="770" type="line"/>
    </contour>
  </outline>
</glyph>
<glyph name="uni0302" format="2">
  <advance width="0"/>
  <unicode hex="0302"/>
  <anchor x="157" y="470" name="_top"/>
  <anchor x="157" y="770" name="top"/>
  <outline>
    <contour>
      <point x="218" y="530" type="line"/>
      <point x="288" y="530" type="line"/>
      <point x="216" y="770" type="line"/>
      <point x="146" y="770" type="line"/>
    </contour>
    <contour>
      <point x="26" y="530" type="line"/>
      <point x="96" y="530" type="line"/>
      <point x="168" y="770" type="line"/>
      <point x="98" y="770" type="line"/>
    </contour>
  </outline>
</glyph>
<glyph name="tildecomb" format="2">
  <advance width="0"/>
  <unicode hex="0303"/>
  <guideline x="55" y="530"/>
  <guideline x="309" y="684" angle="180"/>
  <anchor x="182" y="470" name="_top"/>
  <anchor x="182" y="684" name="top"/>
  <outline>
    <contour>
      <point x="20" y="601" type="curve" smooth="yes"/>
      <point x="20" y="530" type="line"/>
      <point x="90" y="530" type="line"/>
      <point x="90" y="571" type="line" smooth="yes"/>
      <point x="90" y="614"/>
      <point x="101" y="624"/>
      <point x="116" y="624" type="curve" smooth="yes"/>
      <point x="132" y="624"/>
      <point x="142" y="605"/>
      <point x="157" y="583" type="curve" smooth="yes"/>
      <point x="159" y="580" type="line" smooth="yes"/>
      <point x="186" y="539"/>
      <point x="209" y="520"/>
      <point x="259" y="520" type="curve" smooth="yes"/>
      <point x="307" y="520"/>
      <point x="344" y="556"/>
      <point x="344" y="613" type="curve" smooth="yes"/>
      <point x="344" y="684" type="line"/>
      <point x="274" y="684" type="line"/>
      <point x="274" y="643" type="line" smooth="yes"/>
      <point x="274" y="612"/>
      <point x="263" y="590"/>
      <point x="248" y="590" type="curve" smooth="yes"/>
      <point x="231" y="590"/>
      <point x="221" y="610"/>
      <point x="205" y="634" type="curve" smooth="yes"/>
      <point x="203" y="637" type="line" smooth="yes"/>
      <point x="177" y="676"/>
      <point x="154" y="694"/>
      <point x="105" y="694" type="curve" smooth="yes"/>
      <point x="57" y="694"/>
      <point x="20" y="658"/>
    </contour>
  </outline>
</glyph>
<glyph name="uni0304" format="2">
  <advance width="0"/>
  <unicode hex="0304"/>
  <anchor x="176" y="470" name="_top"/>
  <anchor x="176" y="620" name="top"/>
  <outline>
    <contour>
      <point x="16" y="550" type="line"/>
      <point x="336" y="550" type="line"/>
      <point x="336" y="620" type="line"/>
      <point x="16" y="620" type="line"/>
    </contour>
  </outline>
</glyph>
<glyph name="uni0306" format="2">
  <advance width="0"/>
  <unicode hex="0306"/>
  <anchor x="156" y="470" name="_top"/>
  <anchor x="156" y="678" name="top"/>
  <outline>
    <contour>
      <point x="216" y="678" type="curve"/>
      <point x="296" y="678" type="line"/>
      <point x="296" y="591"/>
      <point x="252" y="530"/>
      <point x="156" y="530" type="curve" smooth="yes"/>
      <point x="61" y="530"/>
      <point x="16" y="591"/>
      <point x="16" y="678" type="curve"/>
      <point x="96" y="678" type="line"/>
      <point x="96" y="640"/>
      <point x="116" y="610"/>
      <point x="156" y="610" type="curve" smooth="yes"/>
      <point x="197" y="610"/>
      <point x="216" y="640"/>
    </contour>
  </outline>
</glyph>
<glyph name="uni0307" format="2">
  <advance width="0"/>
  <unicode hex="0307"/>
  <guideline x="93" y="530"/>
  <anchor x="106" y="470" name="_top"/>
  <anchor x="106" y="650" name="top"/>
  <outline>
    <contour>
      <point x="50" y="530" type="line"/>
      <point x="162" y="530" type="line"/>
      <point x="162" y="650" type="line"/>
      <point x="50" y="650" type="line"/>
    </contour>
  </outline>
</glyph>
<glyph name="uni0308" format="2">
  <advance width="0"/>
  <unicode hex="0308"/>
  <anchor x="166" y="470" name="_top"/>
  <anchor x="166" y="630" name="top"/>
  <outline>
    <contour>
      <point x="210" y="530" type="line"/>
      <point x="302" y="530" type="line"/>
      <point x="302" y="630" type="line"/>
      <point x="210" y="630" type="line"/>
    </contour>
    <contour>
      <point x="30" y="530" type="line"/>
      <point x="122" y="530" type="line"/>
      <point x="122" y="630" type="line"/>
      <point x="30" y="630" type="line"/>
    </contour>
  </outline>
</glyph>
<glyph name="uni030A" format="2">
  <advance width="0"/>
  <unicode hex="030A"/>
  <guideline x="58" y="530"/>
  <anchor x="146" y="470" name="_top"/>
  <anchor x="146" y="811" name="top"/>
  <outline>
    <contour>
      <point x="146" y="530" type="curve" smooth="yes"/>
      <point x="223" y="530"/>
      <point x="276" y="593"/>
      <point x="276" y="670" type="curve" smooth="yes"/>
      <point x="276" y="747"/>
      <point x="223" y="810"/>
      <point x="146" y="810" type="curve" smooth="yes"/>
      <point x="69" y="810"/>
      <point x="16" y="747"/>
      <point x="16" y="670" type="curve" smooth="yes"/>
      <point x="16" y="593"/>
      <point x="69" y="530"/>
    </contour>
    <contour>
      <point x="146" y="612" type="curve" smooth="yes"/>
      <point x="114" y="612"/>
      <point x="98" y="638"/>
      <point x="98" y="670" type="curve" smooth="yes"/>
      <point x="98" y="702"/>
      <point x="114" y="728"/>
      <point x="146" y="728" type="curve" smooth="yes"/>
      <point x="178" y="728"/>
      <point x="194" y="702"/>
      <point x="194" y="670" type="curve" smooth="yes"/>
      <point x="194" y="638"/>
      <point x="178" y="612"/>
    </contour>
  </outline>
</glyph>
<glyph name="uni0312" format="2">
  <advance width="0"/>
  <unicode hex="0312"/>
  <guideline x="22" y="530"/>
  <anchor x="55" y="470" name="_top"/>
  <anchor x="65" y="730" name="top"/>
  <outline>
    <contour>
      <point x="109" y="730" type="line"/>
      <point x="39" y="730" type="line"/>
      <point x="20" y="530" type="line"/>
      <point x="90" y="530" type="line"/>
    </contour>
  </outline>
</glyph>
<glyph name="uni0326" format="2">
  <advance width="0"/>
  <unicode hex="0326"/>
  <anchor x="89" y="0" name="_bottom"/>
  <anchor x="80" y="-240" name="bottom"/>
  <outline>
    <contour>
      <point x="32" y="-240" type="line"/>
      <point x="112" y="-240" type="line"/>
      <point x="129" y="-60" type="line"/>
      <point x="49" y="-60" type="line"/>
    </contour>
  </outline>
</glyph>
<glyph name="uni0327" format="2">
  <advance width="0"/>
  <unicode hex="0327"/>
  <guideline x="122" y="20" angle="180"/>
  <anchor x="113" y="0" name="_bottom"/>
  <anchor x="113" y="-240" name="bottom"/>
  <outline>
    <contour>
      <point x="117" y="-180" type="curve"/>
      <point x="117" y="-240" type="line"/>
      <point x="136" y="-240" type="line" smooth="yes"/>
      <point x="178" y="-240"/>
      <point x="224" y="-214"/>
      <point x="224" y="-139" type="curve"/>
      <point x="154" y="-139" type="line"/>
      <point x="154" y="-164"/>
      <point x="139" y="-180"/>
    </contour>
    <contour>
      <point x="98" y="-240" type="curve" smooth="yes"/>
      <point x="117" y="-240" type="line"/>
      <point x="117" y="-180" type="line"/>
      <point x="95" y="-180"/>
      <point x="80" y="-164"/>
      <point x="80" y="-139" type="curve"/>
      <point x="10" y="-139" type="line"/>
      <point x="10" y="-204"/>
      <point x="48" y="-240"/>
    </contour>
    <contour>
      <point x="63" y="-108" type="line"/>
      <point x="131" y="-108" type="line"/>
      <point x="156" y="20" type="line"/>
      <point x="88" y="20" type="line"/>
    </contour>
    <contour>
      <point x="154" y="-139" type="curve"/>
      <point x="224" y="-139" type="line"/>
      <point x="224" y="-64"/>
      <point x="176" y="-48"/>
      <point x="136" y="-48" type="curve" smooth="yes"/>
      <point x="117" y="-48" type="line"/>
      <point x="117" y="-108" type="line"/>
      <point x="139" y="-108"/>
      <point x="154" y="-114"/>
    </contour>
  </outline>
</glyph>
<glyph name="uni0328" format="2">
  <advance width="0"/>
  <unicode hex="0328"/>
  <guideline x="66" y="20" angle="180"/>
  <anchor x="112" y="0" name="_ogonek"/>
  <outline>
    <contour>
      <point x="105" y="-240" type="curve" smooth="yes"/>
      <point x="197" y="-240" type="line"/>
      <point x="197" y="-150" type="line"/>
      <point x="129" y="-150" type="line" smooth="yes"/>
      <point x="111" y="-150"/>
      <point x="107" y="-140"/>
      <point x="112" y="-123" type="curve" smooth="yes"/>
      <point x="156" y="38" type="line"/>
      <point x="87" y="38" type="line"/>
      <point x="38" y="-135" type="line" smooth="yes"/>
      <point x="33" y="-153"/>
      <point x="30" y="-168"/>
      <point x="30" y="-182" type="curve" smooth="yes"/>
      <point x="30" y="-221"/>
      <point x="53" y="-240"/>
    </contour>
  </outline>
</glyph>
<glyph name="uni1E9E" format="2">
  <advance width="550"/>
  <unicode hex="1E9E"/>
  <outline>
    <contour>
      <point x="60" y="700" type="line"/>
      <point x="60" y="0" type="line"/>
      <point x="180" y="0" type="line"/>
      <point x="180" y="700" type="line"/>
    </contour>
    <contour>
      <point x="68" y="700" type="line"/>
      <point x="68" y="610" type="line"/>
      <point x="456" y="610" type="line"/>
      <point x="456" y="700" type="line"/>
    </contour>
    <contour>
      <point x="346" y="610" type="line"/>
      <point x="256" y="409" type="line"/>
      <point x="256" y="319" type="line"/>
      <point x="321" y="319" type="line"/>
      <point x="456" y="610" type="line"/>
    </contour>
    <contour>
      <point x="340" y="90" type="curve"/>
      <point x="340" y="0" type="line"/>
      <point x="422" y="0"/>
      <point x="526" y="5"/>
      <point x="526" y="206" type="curve" smooth="yes"/>
      <point x="526" y="354"/>
      <point x="469" y="409"/>
      <point x="315" y="409" type="curve"/>
      <point x="315" y="319" type="line"/>
      <point x="363" y="319"/>
      <point x="406" y="285"/>
      <point x="406" y="196" type="curve" smooth="yes"/>
      <point x="406" y="142"/>
      <point x="390" y="90"/>
    </contour>
    <contour>
      <point x="250" y="0" type="line"/>
      <point x="340" y="0" type="line"/>
      <point x="340" y="90" type="line"/>
      <point x="250" y="90" type="line"/>
    </contour>
  </outline>
</glyph>
<glyph name="emdash" format="2">
  <advance width="568"/>
  <unicode hex="2014"/>
  <outline>
    <contour>
      <point x="20" y="234" type="line"/>
      <point x="548" y="234" type="line"/>
      <point x="548" y="299" type="line"/>
      <point x="20" y="299" type="line"/>
    </contour>
  </outline>
</glyph>
<glyph name="quoteleft" format="2">
  <advance width="138"/>
  <unicode hex="2018"/>
  <outline>
    <contour>
      <point x="10" y="410" type="line"/>
      <point x="100" y="410" type="line"/>
      <point x="128" y="700" type="line"/>
      <point x="48" y="700" type="line"/>
    </contour>
  </outline>
</glyph>
<glyph name="dagger" format="2">
  <advance width="233"/>
  <unicode hex="2020"/>
  <outline>
    <contour>
      <point x="84" y="700" type="line"/>
      <point x="84" y="421" type="line"/>
      <point x="149" y="421" type="line"/>
      <point x="149" y="700" type="line"/>
    </contour>
    <contour>
      <point x="217" y="640" type="line"/>
      <point x="16" y="640" type="line"/>
      <point x="16" y="575" type="line"/>
      <point x="217" y="575" type="line"/>
    </contour>
  </outline>
</glyph>
<glyph name="daggerdbl" format="2">
  <advance width="233"/>
  <unicode hex="2021"/>
  <outline>
    <contour>
      <point x="84" y="700" type="line"/>
      <point x="84" y="371" type="line"/>
      <point x="149" y="371" type="line"/>
      <point x="149" y="700" type="line"/>
    </contour>
    <contour>
      <point x="217" y="640" type="line"/>
      <point x="16" y="640" type="line"/>
      <point x="16" y="575" type="line"/>
      <point x="217" y="575" type="line"/>
    </contour>
    <contour>
      <point x="217" y="496" type="line"/>
      <point x="16" y="496" type="line"/>
      <point x="16" y="431" type="line"/>
      <point x="217" y="431" type="line"/>
    </contour>
  </outline>
</glyph>
<glyph name="bullet" format="2">
  <advance width="252"/>
  <unicode hex="2022"/>
  <outline>
    <contour>
      <point x="36" y="170" type="line"/>
      <point x="216" y="170" type="line"/>
      <point x="216" y="350" type="line"/>
      <point x="36" y="350" type="line"/>
    </contour>
  </outline>
</glyph>
<glyph name="guilsinglleft" format="2">
  <advance width="178"/>
  <unicode hex="2039"/>
  <outline>
    <contour>
      <point x="20" y="272" type="line"/>
      <point x="110" y="272" type="line"/>
      <point x="158" y="470" type="line"/>
      <point x="78" y="470" type="line"/>
    </contour>
    <contour>
      <point x="20" y="272" type="line"/>
      <point x="78" y="74" type="line"/>
      <point x="158" y="74" type="line"/>
      <point x="110" y="272" type="line"/>
    </contour>
  </outline>
</glyph>
<glyph name="minus" format="2">
  <advance width="270"/>
  <unicode hex="2212"/>
  <outline>
    <contour>
      <point x="250" y="375" type="line"/>
      <point x="20" y="375" type="line"/>
      <point x="20" y="285" type="line"/>
      <point x="250" y="285" type="line"/>
    </contour>
  </outline>
</glyph>
<glyph name="uniA78B" format="2">
  <advance width="156"/>
  <unicode hex="A78B"/>
  <outline>
    <contour>
      <point x="33" y="410" type="line"/>
      <point x="123" y="410" type="line"/>
      <point x="128" y="700" type="line"/>
      <point x="28" y="700" type="line"/>
    </contour>
  </outline>
</glyph>
<glyph name="uniA78C" format="2">
  <advance width="156"/>
  <unicode hex="A78C"/>
  <outline>
    <contour>
      <point x="32" y="470" type="line"/>
      <point x="124" y="470" type="line"/>
      <point x="128" y="700" type="line"/>
      <point x="28" y="700" type="line"/>
    </contour>
  </outline>
</glyph>
<glyph name="tildecomb.narrow" format="2">
  <advance width="0"/>
  <guideline x="55" y="530"/>
  <guideline x="309" y="684" angle="180"/>
  <anchor x="182" y="470" name="_top"/>
  <anchor x="182" y="684" name="top"/>
  <outline>
    <contour>
      <point x="30" y="601" type="curve" smooth="yes"/>
      <point x="30" y="530" type="line"/>
      <point x="100" y="530" type="line"/>
      <point x="100" y="571" type="line" smooth="yes"/>
      <point x="100" y="614"/>
      <point x="111" y="624"/>
      <point x="126" y="624" type="curve" smooth="yes"/>
      <point x="140" y="624"/>
      <point x="146" y="608"/>
      <point x="152" y="587" type="curve" smooth="yes"/>
      <point x="154" y="580" type="line" smooth="yes"/>
      <point x="166" y="536"/>
      <point x="191" y="520"/>
      <point x="247" y="520" type="curve" smooth="yes"/>
      <point x="295" y="520"/>
      <point x="334" y="556"/>
      <point x="334" y="613" type="curve" smooth="yes"/>
      <point x="334" y="684" type="line"/>
      <point x="264" y="684" type="line"/>
      <point x="264" y="643" type="line" smooth="yes"/>
      <point x="264" y="612"/>
      <point x="253" y="590"/>
      <point x="238" y="590" type="curve" smooth="yes"/>
      <point x="223" y="590"/>
      <point x="219" y="603"/>
      <point x="212" y="627" type="curve" smooth="yes"/>
      <point x="210" y="634" type="line" smooth="yes"/>
      <point x="197" y="678"/>
      <point x="173" y="694"/>
      <point x="117" y="694" type="curve" smooth="yes"/>
      <point x="69" y="694"/>
      <point x="30" y="658"/>
    </contour>
  </outline>
</glyph>
<glyph name="uni030C.alt" format="2">
  <advance width="0"/>
  <anchor x="109" y="730" name="_topright"/>
  <outline>
    <contour>
      <point x="109" y="730" type="line"/>
      <point x="39" y="730" type="line"/>
      <point x="20" y="530" type="line"/>
      <point x="90" y="530" type="line"/>
    </contour>
  </outline>
</glyph>
<glyph name="uni0326.loclMAH" format="2">
  <advance width="0"/>
  <anchor x="74" y="0" name="_bottom"/>
  <outline>
    <contour>
      <point x="20" y="-240" type="line"/>
      <point x="90" y="-240" type="line"/>
      <point x="109" y="-40" type="line"/>
      <point x="39" y="-40" type="line"/>
    </contour>
  </outline>
</glyph>
